<svg xmlns="http://www.w3.org/2000/svg" viewBox="0 0 662.42 647.69"><defs><style>.cls-1{fill:none;}.cls-1,.cls-2{stroke:#231f20;stroke-linecap:round;stroke-linejoin:round;stroke-width:3.19px;}.cls-2{fill:#63aae0;}.cls-3{fill:#fefefe;}</style></defs><title>hand-holding-beerAsset 1</title><g id="Layer_2" data-name="Layer 2"><g id="Layer_1-2" data-name="Layer 1"><path class="cls-1" d="M660.82,646.1S307.76,425.41,287,410.51c-10.17-7.3-17.38-9-21.58-13.17-3.93-3.87-8-3.85-11.41-3.85-6.92,0-27.67-9.58-27.67-9.58-20.22,6.39-28.73,2.13-28.73,2.13l3.62-.7c2.49-.26,5-.49,7.56-.72,0,0,6.75-2,5.68-6.39,0,0,2.11-4.83,4-6.36,0,0,0,0,.06,0l3.6-2.81-15.73-85.67L181.65,148.73c-3.43-9-4.66-18.6-7.45-27a36.43,36.43,0,0,0-7.11-13.13l0,0a28.59,28.59,0,0,0-2.43-2.38C133.87,79.6,137,64,141.21,46.57c3-12.37,12-14.49,15.56-14.83l.15.7c-3,1.89-9.94,7.28-5.07,14.66a86.44,86.44,0,0,0,10.22,12c5.43,5.49,10.54,9.85,10.54,9.85s6.32-.7,7.3-5.66c4.15,4,12.39,5.66,12.39,5.66a34.25,34.25,0,0,1,10.13,4.47h0A35.25,35.25,0,0,1,210,79.94a60.67,60.67,0,0,1,9.79,16c5.45,12.32,8.77,26.28,14,36.84C244.44,154,265.72,194.49,271,201.93s21.28,31.39,22.35,38.31,13.3,24.48,20.22,27.67,36.18,17,36.18,17c55.34,31.93,127.7,83.54,151.11,92.58s159.9,62.79,159.9,62.79"/><path class="cls-1" d="M158.24,31.67a13.21,13.21,0,0,0-1.32.77l-.15-.7A12.43,12.43,0,0,1,158.24,31.67Z"/><path class="cls-1" d="M179.91,63.23a8.63,8.63,0,0,1-1.45-1.77l-20.22-29.8Z"/><path class="cls-1" d="M170,111c4.43,1.26,15.6,5.41,23.35-2.19"/><path class="cls-1" d="M195.49,86.47c-.51-11.85,6.49-13,6.94-13.09"/><path class="cls-1" d="M219.74,95.91s-2.18,6.52-10.42,8.65"/><path class="cls-1" d="M210,79.93a10.62,10.62,0,0,0-4.9,6.54"/><path class="cls-1" d="M206.36,283.34s20,30.86,61.48,9"/><path class="cls-1" d="M256.15,393.48s23.94-29.26,35.65-64.38"/><path class="cls-1" d="M265.42,397.34s33.11-39.18,42.33-78.35"/><path class="cls-1" d="M36.86,184.38a19.87,19.87,0,0,1,0,7.79"/><path class="cls-1" d="M36.9,192.19a9.47,9.47,0,0,1-.51,1.66"/><path class="cls-1" d="M21.9,199.34s0,0,0,0"/><path class="cls-1" d="M21.9,199.34s0,0,0,0l-.34-.06"/><path class="cls-1" d="M36.37,205.83a.8.8,0,0,1,0,.36"/><path class="cls-1" d="M22.92,248.35l-.32-.13"/><line class="cls-1" x1="34.73" y1="296.6" x2="34.31" y2="296.65"/><path class="cls-1" d="M40.07,338.59l-.45.09"/><path class="cls-1" d="M17.07,41.16h0l.19-1.3C17.34,40.8,17.56,41.33,17.07,41.16Z"/><path class="cls-1" d="M151.49,17.83a.37.37,0,0,1,0,.11c0,.19-.26.4-1.3-2.41-1.34-3.55-10.73-5.32-10.73-5.32-.87-.23-1.81-.45-2.77-.64a233.77,233.77,0,0,0-26.5-.6h-.11a358.41,358.41,0,0,0-44.42,6.9c-3,.47-5.79,1-8.43,1.64h0l-.06,0A130.45,130.45,0,0,0,17.6,37.35l-.36,2.51L17,41.16c-1.3-.45,0,0-1-.81s-1.26-7.79-1.26-7.79a3.1,3.1,0,0,1,1.06-2.49c5.6-8.88,28-15.6,28-15.6C112.76-4.6,134,2.68,142.64,4.36s7.53,4.09,7.53,4.09A26.22,26.22,0,0,1,151.49,17.83Z"/><path class="cls-1" d="M66.91,261.53s-5.73-8-14-9.58a14.84,14.84,0,0,1-6.43,1.72c-9.43.64-21.52-4.41-23.58-5.32-1.55,1.32-13.54,12.13-8.7,28.07,0,0,1.17,8.77,17.39,18.09l.42.28a9.32,9.32,0,0,0,6,1.53L53.57,295l3.41-.29a7.61,7.61,0,0,0,4.41-1.9C66.44,288.35,78.12,275.62,66.91,261.53Z"/><path class="cls-1" d="M50.12,274.85a27.46,27.46,0,0,0,1.17,8.49l-14.43-3.72s-10.47-12.28,3.79-20.75L54.48,261S50.31,264.66,50.12,274.85Z"/><path class="cls-1" d="M59.31,294.52l-5.75.49-18.84,1.6.06,0s-13,.26-11.71,17c0,0,0,8.77,6.92,14.37,0,0,9.13,7.83,10.07,10.56,12.75-2.58,18.33-7.09,19.52-8.17l.26-.26S76.09,309.67,59.31,294.52ZM47,319l-10.17-2.66c-2.13-10.77,3.79-14.9,3.79-14.9H47A21.42,21.42,0,0,0,47,319Z"/><path class="cls-1" d="M53.82,216.77a89,89,0,0,0-15.24-9.51,25,25,0,0,1-2.21-1.43c-.13-1-1.64-4-13.51-6.32l-.34,0a6,6,0,0,1-.62-.13s0,0,0,0c-1.7.87-17.77,9.71-14.75,32.39,0,0-.26,9,16,16.49l-.17.13c2.06.92,14.15,6,23.58,5.32A14.84,14.84,0,0,0,52.93,252s9.22-8.22,8.75-20.28A20,20,0,0,0,53.82,216.77Zm-13.24,2.32c-7.41,14.3-2.06,24.75-2.06,24.75l-13.84-7.32c-5.32-12,5.85-21.82,5.85-21.82Z"/><path class="cls-1" d="M40.56,218.92l.09,0-.06.11Z"/><path class="cls-1" d="M31.11,163.54c-.77-1.38-1.66-4.75-2.66-5.77l-2.11-11.58c-3,.87-19.18,8.39-24,23.82C-3,187,22,199.27,22,199.27l-.13.06a6,6,0,0,0,.62.13l.34,0c3.11.45,10.79.85,13.45-5.49a1.27,1.27,0,0,0,.09-.17C36.48,189.36,36.35,172.93,31.11,163.54ZM18,191.78l-9.54-9c-2.92-17.84,7.45-20.22,7.45-20.22l4.26,5.58C16.77,181.93,17.43,191.14,18,191.78Z"/><path class="cls-2" d="M222.09,369q-7.25.57-14.47,1.34h0c-68,7-129.83,24.43-133,25.26a1.09,1.09,0,0,1-.23,0c-3.3.6-4.38-4.83-4.38-4.83l-8.17-47.91-1.4-12.75s16.22-20.5-.53-35.65c0,0,21.56-15.43,7.6-33,0,0-5.75-8-14-9.58,0,0,9.22-8.22,8.75-20.28a20,20,0,0,0-7.85-14.9A90.62,90.62,0,0,0,38.54,207l-1.68-9.79V195s0-1.06,0-2.83v0c0-5.51-.51-17.84-4.19-26.37-.28-.6-.55-1.19-.85-1.77a2.72,2.72,0,0,0-.23-.43,11,11,0,0,0-.7-1.19L16.17,76a74.62,74.62,0,0,1-1.43-19L17,41.16h0c.49.17.28-.36.17-1.3l.36-2.51A130.45,130.45,0,0,1,57.14,17.54l.06,0h0c2.64-.62,5.45-1.17,8.43-1.64A358.41,358.41,0,0,1,110.08,9h.11a233.77,233.77,0,0,1,26.5.6c1,.19,1.89.4,2.77.64,0,0,9.39,1.77,10.73,5.32,1,2.81,1.26,2.6,1.3,2.41,2.38,4.92,4.64,10.36,4.64,10.36l.66,3.43c-3.55.34-12.54,2.47-15.56,14.83-4.26,17.39-7.34,33,23.41,59.59a28.59,28.59,0,0,1,2.43,2.38l0,0a36.43,36.43,0,0,1,7.11,13.13Z"/><path class="cls-1" d="M17.07,41.16h0l.19-1.3C17.34,40.8,17.56,41.33,17.07,41.16Z"/><path class="cls-1" d="M36.39,193.85"/><path class="cls-1" d="M30.92,162.41c5.32,8.26,6.64,23.45,6,29.75v0c0,1.77,0,2.83,0,2.83v2.17"/><path class="cls-1" d="M179.91,63.23v0c-1,5-7.3,5.66-7.3,5.66s-5.11-4.36-10.54-9.85a86.44,86.44,0,0,1-10.22-12c-4.87-7.39,2-12.77,5.07-14.66a13.21,13.21,0,0,1,1.32-.77l20.22,29.8A8.63,8.63,0,0,0,179.91,63.23Z"/><path class="cls-1" d="M222.09,369l-3.6,2.81s0,0-.06,0c-1.85,1.53-4,6.36-4,6.36,1.06,4.36-5.68,6.39-5.68,6.39-2.55.23-5.07.47-7.56.72-69.85,7-111.4,21.09-115,21.28s-8.17-5-8.17-5a6.31,6.31,0,0,1-3.77-6,1.09,1.09,0,0,0,.23,0c3.21-.83,65.08-18.22,133-25.26h0Q214.83,369.58,222.09,369Z"/><path class="cls-1" d="M40.07,338.59s12.07,7.93,21.62,6.74"/><path class="cls-1" d="M86.24,406.62s95.41-10.66,122.55-22"/><path d="M167,161.43c5.74,32.09-18.58,57-48.91,61.09-30.09,4.36-60.73-14-65.38-44.93-3.23-29.9,17.14-64.39,48.52-69.19C133.45,103.46,163,129.88,167,161.43Z"/><path class="cls-3" d="M76.06,209.27a82.66,82.66,0,0,0,8-3.59,75,75,0,0,0,29.67-27.25,24,24,0,0,0,3.7-12.08c.19-8.08-7.39-15.85-15.49-15.47a13.24,13.24,0,0,0-11.57,7.54c-2.51,4.72-2.49,9.46.21,13.84,2.24,3.64,5.84,4.86,10.07,4.86a31.16,31.16,0,0,0,7.17-1c1.11-.26,1.72,0,1.9.92s-.37,1.37-1.25,1.61c-5.63,1.55-11.26,2.11-16.86.46a13.57,13.57,0,0,1-10.26-12.36c-.89-9,3-16.19,10.18-21.68,6.5-5,13.75-7.25,21.74-5.25,5.62,1.4,9.89,5,13.52,9.54A69.5,69.5,0,0,1,137,167.56c1.72,4.29,3.4,8.59,5.13,12.9,2.64,6.57,7.4,11.13,13.63,14.47,1.19.64,1.21.64.51,1.66a50.79,50.79,0,0,1-31,21c-17.05,2.64-30.15,1.64-45-5.58A27.49,27.49,0,0,1,76.06,209.27Z"/></g></g></svg>