<svg xmlns="http://www.w3.org/2000/svg" viewBox="0 0 954.28 285.59"><defs><style>.cls-1{fill:#b98c3a;}.cls-2{fill:#9d3021;}.cls-3{fill:#542416;}.cls-4{fill:#291a13;}.cls-5{fill:none;stroke:#231f20;stroke-linecap:round;stroke-linejoin:round;stroke-width:2.04px;}</style></defs><title>hand-holding-flightAsset 3</title><g id="Layer_2" data-name="Layer 2"><g id="Layer_1-2" data-name="Layer 1"><path class="cls-1" d="M522.62,188.69c-10.39,5.3-40.93,16.32-95.36.4l-.37-7.22,0-.64L426,163.76l-6.3-124.11,1-.05c60.49,14.24,85.6,7.42,107.87.69h.21L520.1,171l-.83,12.56c1.07.38,2.15.77,3.24,1.18C523.8,185.18,523.88,188.05,522.62,188.69Z"/><path class="cls-2" d="M400,33.53l-8.51,127.6-.89,13.42-.37,5.48.17,1.08c-12.42,5.3-41,12.63-88.3-1.21l-.39-7.56-.92-18.15-6.17-121.3,1.18-.06C354,46.53,378.2,40,399.62,33.5Z"/><path class="cls-2" d="M393.76,175.68c1.24.46,1.32,3.23.11,3.84-1,.49-2.1,1-3.42,1.59l-.17-1.08.37-5.48C391.68,174.91,392.72,175.29,393.76,175.68Z"/><path class="cls-3" d="M275.93,27.23l-8.29,124.42-.82,12.21-.35,5.25.16,1c-11.91,5.07-39.3,12.11-84.7-1.16l-.37-7.26L180.71,145l-6-118.38,1.2-.06c55.83,13.14,79,6.85,99.54.64Z"/><path class="cls-3" d="M269.81,164.94c1.19.44,1.27,3.1.1,3.69-.92.47-2,1-3.28,1.53l-.16-1,.35-5.25Z"/><path class="cls-4" d="M159.35,27.18l-7.71,115.6-.85,12.76-.33,5,.15,1c-11.3,4.83-37.29,11.5-80.37-1.1l-.35-6.88-.42-8.19-6-118.75,1.07-.05c53,12.47,75,6.5,94.45.61Z"/><path class="cls-4" d="M150.46,160.53l.33-5c.94.33,1.88.67,2.84,1,1.13.41,1.2,2.93.09,3.49-.87.45-1.91.94-3.11,1.45Z"/><path class="cls-5" d="M69.89,153.53l-.42-8.19L3.13,164.79,532.46,215S549,206.27,568,204.4"/><polyline class="cls-5" points="181.56 161.74 180.71 145 151.64 142.78 150.79 155.54"/><polyline class="cls-5" points="302.15 179.9 301.76 172.34 300.84 154.19 267.64 151.65 266.82 163.86"/><path class="cls-5" d="M427.26,189.09l-.37-7.22,0-.64L426,163.76l-34.44-2.63-.89,13.42c1,.36,2.07.74,3.11,1.13"/><path class="cls-5" d="M598.56,186.61c-3.31.76-26.09,5.29-34.88-12.32L520.1,171l-.83,12.56c1.07.38,2.15.77,3.24,1.18"/><path class="cls-5" d="M806.62,223.15l-.44,0c-1.49-.14-6.72-.58-14.64-1.26"/><path class="cls-5" d="M711.27,215c-26.07-2.21-53.54-4.53-76.82-6.45"/><path class="cls-5" d="M764.64,219.73c-3.44-.3-5-.6-8.73-.92"/><path class="cls-5" d="M3.13,164.79s-4.75,21,0,25.79,528,52.93,528,52.93,36-14.25,76-9.5l4.71.54"/><path class="cls-5" d="M418.52,15.47a1.32,1.32,0,0,1,.86-1.7c11.73-4.12,47.57-13.15,110,.68a1.34,1.34,0,0,1,.12,2.61,105.17,105.17,0,0,1-11.4,2.72c-16.06,3-44.67,5.36-87.47-1.5q-5.34-.86-11-1.91A1.37,1.37,0,0,1,418.52,15.47Z"/><polyline class="cls-5" points="530.42 16.17 530.42 16.18 529.95 23.29 528.81 40.3 520.1 170.96"/><line class="cls-5" x1="519.27" y1="183.52" x2="518.89" y2="189.22"/><line class="cls-5" x1="427.27" y1="189.22" x2="427.26" y2="189.09"/><polyline class="cls-5" points="425.98 163.76 419.68 39.65 418.81 22.53 418.45 15.49"/><path class="cls-5" d="M868.38,197c-2.38,12.21-29.18,36.53-29.18,36.53A54.06,54.06,0,0,1,817,247.91"/><path class="cls-5" d="M868.74,196a4.07,4.07,0,0,0-.35,1"/><path class="cls-5" d="M952.87,147.83s-77.81,35-84.13,48.17"/><path class="cls-5" d="M684.84,193.48h0l-10.25-.83c-13.52,4.07-32.64,3.81-32.64,3.81-.81,4.92-3.58,8.9-7.49,12.1-12.47,10.19-36.64,12.5-46.8,12.33s-19-9.37-19.62-16.49a6.68,6.68,0,0,1,2-5.68c6.14-5.77,25.5-11.26,28.55-12.11l.21-.05.13,0,.05,0h0c8.38-7.26,14.46-12.23,18.71-15.55a101.63,101.63,0,0,1,8.44-6.17s15.61-3.39,55.65-26.46,96.36-22.4,96.36-22.4c65.83-6.11,175.14-65.36,175.14-65.36"/><polyline class="cls-5" points="806.62 223.15 816.12 204.15 785.62 201.68 785.61 201.68"/><path class="cls-5" d="M674.58,192.65a37.72,37.72,0,0,0,5.82-2.24S693.07,194,703,188.32"/><path class="cls-5" d="M684.83,193.48s21.58,11.58,36.74,10.9"/><path class="cls-5" d="M785.62,201.68c17.94-5.07,39.07-13.47,49.51-26.48"/><path class="cls-5" d="M785.61,201.68A243.28,243.28,0,0,1,755,208.22"/><path class="cls-5" d="M613.86,234.55c6.58.72,15.21,1.59,25.15,2.54,6.8-12.54,15.83-16.19,15.83-16.19,22.51-13,32.8,6.33,32,11.3-.39,2.51-2.15,5.25-4.87,8.81s-6.28,7.75-10.42,13.36c-.3.4-.61.79-1,1.17-8.79,10.27-27.1,11.95-27.1,11.95C612.31,269.3,613.86,234.55,613.86,234.55Z"/><path class="cls-5" d="M755.91,218.81a14,14,0,0,1-.86,2.09,43.24,43.24,0,0,1-5,7.42c-4.26,5.22-10,10.84-15.92,17.36-1.51,1.67-2.89,3.22-4,4.61a26.91,26.91,0,0,0-2.6,3.63l-.21.34c-1.75,2.61-7,6.34-12.88,10,0,0-.35.19-.87.51-.32.19-.7.43-1.11.7-6.53,3.93-13.43,7.59-16.94,9.42a14.62,14.62,0,0,1-5.55,1.61c-6.88.6-22.63.43-23.52-13.51,0,0,1.91-2.68,5-6.72s7.51-9.45,12.43-14.9c7.43-8.23,16.11-16.55,23.69-20.45a43.91,43.91,0,0,1,3.73-5.89,41.65,41.65,0,0,1,10.53-10.27c7-4.55,16.52-6.69,28.5-.33a18,18,0,0,1,3.63,3.86A11.88,11.88,0,0,1,755.91,218.81Z"/><path class="cls-5" d="M775.5,215.84c8.65-2.19,12,1.44,14.81,5.27.2.28.39.55.57.83a18.85,18.85,0,0,1,2.35,5.37,13.88,13.88,0,0,1,.43,2.56c-.23,1.57-1.68,4.42-3.49,7.45a104.25,104.25,0,0,1-7.54,11c-3.89,4.66-8.29,9.28-8.62,9.91l-3.15,3.36c-1.36,1.44-7.18,7.41-7.7,7.94-9.54,9.68-21.37,8.65-24.75,9.3-.33.06-.67,0-1,0-9.11,1-23-9.64-23-14"/><path class="cls-5" d="M749.17,229.15c.27-.29.55-.57.83-.83a35,35,0,0,1,12.8-7.69c.64-.3,1.27-.57,1.87-.82,2.22-.92,4-1.5,4.64-1.77a39.49,39.49,0,0,1,5.75-2.08l.43-.12"/><path class="cls-5" d="M419.37,22.5a1.31,1.31,0,0,1,.91-1.26,91.86,91.86,0,0,1,10.32-3c15.79-3.65,44.63-6.82,87.47,1.5q5,1,10.19,2.14a1.34,1.34,0,0,1,1.09,1.33,1.32,1.32,0,0,1-1,1.28c-15.13,4.69-42.4,11.79-107.87-.69A1.35,1.35,0,0,1,419.37,22.5Z"/><path class="cls-5" d="M528.6,40.29C506.33,47,481.22,53.84,420.73,39.6"/><path class="cls-5" d="M519.95,184.2c1.07.37,1.47.09,2.56.5,1.29.48,1.37,3.35.11,4-10.39,5.3-40.93,16.32-95.36.4"/><path class="cls-5" d="M427.26,189.09q-2.37-.69-4.8-1.46c-1.29-.4-1.44-3.25-.21-4s2.1-.88,3.93-1.75"/><path class="cls-5" d="M173.86,8.78a1.22,1.22,0,0,1,.79-1.57c10.83-3.79,43.9-12.13,101.47.63a1.24,1.24,0,0,1,.11,2.42,109.27,109.27,0,0,1-16.35,3.46c-14.64,2.09-37.41,3.11-69.16-1.47q-7.58-1.1-15.86-2.63A1.27,1.27,0,0,1,173.86,8.78Z"/><polyline class="cls-5" points="277.12 9.43 277.12 9.44 276.53 18.22 275.93 27.23 267.64 151.65"/><line class="cls-5" x1="266.82" y1="163.86" x2="266.47" y2="169.11"/><line class="cls-5" x1="181.93" y1="169.11" x2="181.93" y2="169"/><polyline class="cls-5" points="180.71 145 174.69 26.62 174.22 17.33 173.79 8.81"/><path class="cls-5" d="M174.64,17.31a1.21,1.21,0,0,1,.84-1.16,96.73,96.73,0,0,1,15.24-3.9c14.5-2.59,37.39-4,69.16,1.47q7.31,1.28,15.24,3.05a1.24,1.24,0,0,1,.11,2.42c-14,4.32-39.12,10.87-99.54-.64A1.25,1.25,0,0,1,174.64,17.31Z"/><path class="cls-5" d="M275.43,27.2c-20.54,6.21-43.71,12.5-99.54-.64"/><path class="cls-5" d="M266.82,163.86l3,1.08c1.19.44,1.27,3.1.1,3.69-.92.47-2,1-3.28,1.53-11.91,5.07-39.3,12.11-84.7-1.16"/><path class="cls-5" d="M181.93,169c-1.46-.43-2.94-.88-4.43-1.34-1.19-.38-1.33-3-.2-3.68s2.56-1.44,4.26-2.24Z"/><path class="cls-5" d="M293.74,12.89a1.28,1.28,0,0,1,.82-1.64c11.28-4,45.76-12.65,105.78.66a1.29,1.29,0,0,1,1,1.66,1.27,1.27,0,0,1-.89.85c-1.88.57-4.39,1.25-7.55,1.94-15,3.23-44.58,6.51-90.89-1.31q-3.56-.6-7.24-1.29A1.33,1.33,0,0,1,293.74,12.89Z"/><polyline class="cls-5" points="401.38 13.57 401.01 19.05 400.05 33.53 391.54 161.13"/><line class="cls-5" x1="390.65" y1="174.55" x2="390.28" y2="180.03"/><line class="cls-5" x1="302.15" y1="180.03" x2="302.15" y2="179.9"/><polyline class="cls-5" points="300.84 154.19 294.67 32.89 293.93 18.32 293.66 12.92"/><path class="cls-5" d="M294.55,18.29a1.26,1.26,0,0,1,.87-1.21c1.68-.6,3.88-1.31,6.6-2,14.64-3.88,44.52-8.22,90.89,1.31q3.14.63,6.38,1.37A1.3,1.3,0,0,1,400.34,19a1.28,1.28,0,0,1-.93,1.24c-14.55,4.51-40.78,11.34-103.77-.67A1.3,1.3,0,0,1,294.55,18.29Z"/><path class="cls-5" d="M399.62,33.5C378.2,40,354,46.53,295.85,32.83"/><path class="cls-5" d="M391.33,174.55c1,.36,1.39.74,2.43,1.13,1.24.46,1.32,3.23.11,3.84-1,.49-2.1,1-3.42,1.59-12.42,5.3-41,12.63-88.3-1.21"/><path class="cls-5" d="M302.15,179.9q-2.28-.66-4.63-1.39c-1.24-.39-1.39-3.13-.2-3.83a36.64,36.64,0,0,1,3.76-2.34Z"/><path class="cls-5" d="M62.59,8.39a1.14,1.14,0,0,1,.74-1.49C73.6,3.3,105-4.61,159.62,7.49A1.2,1.2,0,0,1,160.55,9a1.16,1.16,0,0,1-.82.77,91.13,91.13,0,0,1-10,2.38c-14.07,2.63-39.12,4.7-76.62-1.31-3.11-.5-6.32-1-9.61-1.67A1.16,1.16,0,0,1,62.59,8.39Z"/><polyline class="cls-5" points="160.56 9.01 160.13 15.41 159.35 27.18 151.64 142.78"/><line class="cls-5" x1="150.79" y1="155.54" x2="150.46" y2="160.53"/><line class="cls-5" x1="70.25" y1="160.53" x2="70.24" y2="160.41"/><polyline class="cls-5" points="69.47 145.34 63.44 26.59 62.83 14.56 62.52 8.41"/><path class="cls-5" d="M63.32,14.54a1.15,1.15,0,0,1,.8-1.1,80.36,80.36,0,0,1,9-2.59c13.83-3.19,39.09-6,76.62,1.31q4.35.84,8.91,1.87a1.19,1.19,0,0,1,.94,1.35,1.15,1.15,0,0,1-.84.94c-13.25,4.11-37.12,10.32-94.45-.6A1.19,1.19,0,0,1,63.32,14.54Z"/><path class="cls-5" d="M159,27.15C139.47,33,117.48,39,64.51,26.54"/><path class="cls-5" d="M70.24,160.41c-1.38-.4-2.79-.82-4.21-1.27-1.12-.35-1.26-2.85-.18-3.49s2.44-1.36,4-2.12Z"/><path class="cls-5" d="M150.79,155.54c.94.33,1.88.67,2.84,1,1.13.41,1.2,2.93.09,3.49-.87.45-1.91.94-3.11,1.45-11.3,4.83-37.29,11.5-80.37-1.1"/><path class="cls-5" d="M817.67,241.54c0,.19,0,.36.05.52a5.5,5.5,0,0,1-.19,2,35.92,35.92,0,0,1-2.85,6.64h0c-4.66,8.81-15.06,19.37-20.91,26.82A18.16,18.16,0,0,1,774.82,284c-7.8-3.65-16.24-8.22-13.16-12.07L769,265.5c2.22-2.5,6.29-7,8.43-9.56.88-1.07,1.74-2.13,2.59-3.19,4.44-5.57,8.22-11,10.25-15.38a26.3,26.3,0,0,1,6.25-4.38,30.63,30.63,0,0,1,6.36-3.09,17.63,17.63,0,0,1,1.86-.52,14.08,14.08,0,0,1,1.7-.26,8.58,8.58,0,0,1,7.08,2.31C816.48,234.31,817.39,239.1,817.67,241.54Z"/><path class="cls-5" d="M570,198.72s11.08,1.36,15.83,9.5c0,0,23-5.66,26-10.86s-8.72-10.52-13-10.8"/><path class="cls-5" d="M671.14,218.41S650.86,233,650.38,238.84c-.29,3.53,5.1,7.12,9.45,9.42a8.61,8.61,0,0,0,9.59-1.06c4.68-4,11.89-10.35,14.66-14.15C688.34,227.23,673.16,213.91,671.14,218.41Z"/><path class="cls-5" d="M721.57,222.18s12.93-19,16.38-20.24,11.42,1.86,15.51,8.47-15.08,22.91-15.08,22.91S727.39,229.44,721.57,222.18Z"/><path class="cls-5" d="M775.49,215.84l-.31,0-.12.16c-1.34,1.7-12.77,16.38-14.78,21.94,0,0,11.58,9.43,14.9,8.6S793,227.38,793,227.38s-4-10.07-17.48-11.54Z"/><path class="cls-5" d="M804.43,231.35h-.06s-8.6,14.18-10,19.15c0,0,7.8,7.93,10,7.23s12.43-16.08,12.43-16.08S813.63,232.51,804.43,231.35Z"/><path class="cls-5" d="M617.67,171a19,19,0,0,0,16.78,10.95"/><path class="cls-5" d="M634.08,162.57s11.06,4.3,12.21,16.09"/><path class="cls-5" d="M626.11,164.79s7.86,4.58,8.34,8.48"/><polyline class="cls-5" points="816.12 204.15 815.7 229.07 814.26 231.34"/><line class="cls-5" x1="806.41" y1="228.59" x2="806.15" y2="223.37"/><path class="cls-5" d="M868.38,197v0c0-.09.16-.42.35-1h0c1.3-4,5.47-19.82,2.58-50.66"/></g></g></svg>