<svg xmlns="http://www.w3.org/2000/svg" viewBox="0 0 50.59 50.57"><defs><style>.cls-1{fill:#fefefe;}</style></defs><title>logo-bwAsset 8</title><g id="Layer_2" data-name="Layer 2"><g id="Layer_1-2" data-name="Layer 1"><path d="M50.59,25.27A25.29,25.29,0,1,1,25.3,0,25.23,25.23,0,0,1,50.59,25.27Z"/><path class="cls-1" d="M7.85,41.35a27.6,27.6,0,0,0,3.67-.71,28.52,28.52,0,0,0,14.56-9.43,10.69,10.69,0,0,0,2.4-5,6.93,6.93,0,0,0-5.66-7.73,5.61,5.61,0,0,0-5.46,2.3,5.83,5.83,0,0,0-.83,6,4.87,4.87,0,0,0,4,3,12.36,12.36,0,0,0,3.15.09c.5,0,.74.14.76.53s-.25.57-.65.61a12.14,12.14,0,0,1-7.28-1.13,6.46,6.46,0,0,1-3.57-6.34c.21-4,2.37-6.68,5.79-8.41a11.26,11.26,0,0,1,9.7-.63,11.17,11.17,0,0,1,5.23,4.85,28.79,28.79,0,0,1,3.25,8.27c.47,1.91.92,3.82,1.4,5.73a10.2,10.2,0,0,0,5.06,6.48c.49.29.49.28.12.72a23.16,23.16,0,0,1-15,8.28A23.23,23.23,0,0,1,9.5,43,16.38,16.38,0,0,1,7.85,41.35Z"/></g></g></svg>