<svg xmlns="http://www.w3.org/2000/svg" viewBox="0 0 342.71 344.92"><defs><style>.cls-1{fill:#006837;stroke:#000;stroke-miterlimit:10;stroke-width:1.7px;}</style></defs><title>palm-colorAsset 4</title><g id="Layer_2" data-name="Layer 2"><g id="Layer_1-2" data-name="Layer 1"><path class="cls-1" d="M66.78,341.85H63.94L41.6,330.67,44,341.85H39.5l.68-8.61c-3.66,2.27-7.09,4.33-10.41,6.53-.57.37-.72,1.37-1.07,2.08H.85q0-11.08,0-22.17l4.09,7.21,21.92-5.23L12,311.12.85,318v-6.25l10.29-1.26L.85,302.07q0-2,0-4l6.32,5.35-3.1-24.69L.85,278.2q0-2,0-4l3.35,1.7v-15.1L.85,260q0-1.71,0-3.41l3.61,2.9c0-3.29-.18-6.08,0-8.84S4,246,.85,245.8V243l3.64,2.52c0-4.78-.06-9,0-13.23.06-3.34,0-3.47-3.66-3.5v-5.12l3.84,3.57c.29-3.34.56-6.06.76-8.79.38-5.24.36-5.24-4.6-7.29v-5.68l5.2,6.24c.5-3.76,1-7,1.33-10.28A2.23,2.23,0,0,0,7,199.87c-2-2.34-4.09-4.62-6.14-6.92q0-5.68,0-11.37l6.65,16.79c1.26-7.46,5.28-14.84.25-22.35A18.71,18.71,0,0,1,6,171.53C4.28,166.36,2.57,161.18.85,156V123c.75,2.77,2.65,4.14,5.41,4.58a16.58,16.58,0,0,1,2.7.85l12.37,4.25L25,123.15c-2.25-.41-4.1-.76-6-1.07l-18.15-3v-6.82l26.68,5.45L31.4,110,.85,106q0-2.27,0-4.55c10.83.76,21.66,1.54,32.49,2.26a2.54,2.54,0,0,0,1.95-.63c1.11-1.56,2-3.28,3.25-5.41L.85,96.9q0-1.14,0-2.27c1-.09,2.06-.09,3.07-.27a168,168,0,0,1,42.55-2.94,193.33,193.33,0,0,1,23.07,2.87c5.12.89,10.09,2.68,15.12,4.07a2.22,2.22,0,0,1-1.83.68c-12.87-.39-25.74-.8-38.61-1.13-1,0-2.55.26-2.92.92-1,1.73-1.45,3.75-2.48,6.65,3.82,0,6.93.42,9.88-.07,12.93-2.17,25.89-3.39,39-2.18l4.87.42.35-.64c-5.14-5.51-10.27-11-15.47-16.49a2.89,2.89,0,0,0-2.05-.59C64.7,86.59,54.51,84.35,44.46,81a8.31,8.31,0,0,0-4.61,0c-7.19,2-14.34,4.16-21.48,6.36-5.86,1.8-11.68,3.73-17.52,5.6V91.22c.89-.46,1.79-.89,2.66-1.4,5.2-3.07,10.27-6.36,15.61-9.15,3.82-2,8-3.33,12.27-5.08l-10.88-6,.3-.73c5,.94,10.13,1.44,15,2.91C43.86,74.22,51,70,58.62,69.4c-4.67-4-9.34-7.62-14.1-11.14a3.06,3.06,0,0,0-2.3-.08c-7.16,2.07-14.31,4.14-21.41,6.39a10.75,10.75,0,0,0-4.11,2.6C11.35,72.46,6.12,77.88.85,83.26V62.8C8.9,62,15,58,20,51.4L.85,57.12q0-3.13,0-6.25l22.39-3.34c1.19-.18,2.37-.43,3.55-.65l.05-.9C22.91,43.6,19,41.18,15,38.92c-.54-.3-1.59.1-2.32.39C8.72,40.85,4.79,42.46.85,44V39.5l11.43-1.63.1-.7L.85,31.54q0-1.42,0-2.84L10.34,33C7.93,24.77,5.61,16.76,3.13,8.8,3,8.25,1.64,8,.85,7.67V.85H29.27l.65,6.4c2.4-.88,4.39-1.75,6.46-2.32,2.24-.61,3.2-1.79,2.56-4.08H55.41L57.3,10.3,73.65,5.37A12.05,12.05,0,0,1,71.57,7.6c-3.89,2.48-7.86,4.81-11.76,7.28-.68.43-1.54,1.21-1.6,1.89a32,32,0,0,0,.41,5.12c5.1-3.51,12.57-3.59,12.65-11.83l1.07,4.69L86.7,9.91C83,12.77,79.34,15.77,75.45,18.4c-1.67,1.13-2.45,1.92-2.19,4.16,1.55,13.38,1.21,26.65-3.13,39.58-.68,2-1.49,4-2.38,6.36l12.36-1.09a202.06,202.06,0,0,1,8.27-42.26,76.6,76.6,0,0,1,1.31,10c1.08,17-.21,33.66-8.51,49.1a3.18,3.18,0,0,0,.41,2.84c3.05,3.6,6.28,7.05,9.46,10.55q8.76,12,17.5,24.06c1,1.4,1.91,2.89,3.26,5,.49-3.95,1-7.1,1.2-10.27a6.38,6.38,0,0,0-.92-3.56,46.91,46.91,0,0,0-3.68-4.63l.46-.38,4.84,3.26c3-8.38,2.41-10.78-3.7-15.36-1.74,5.44-3.44,10.85-7.26,16.12a28.39,28.39,0,0,1,0-3c1.38-10,2.73-20,4.24-30,.28-1.85.19-3.22-1.26-4.56s-2.78-3-4.17-4.57l6.56,3.58c.68-2.44,1.36-4.68,1.88-7a2.19,2.19,0,0,0-.49-1.77c-2.56-2.46-5.21-4.84-8.29-7.66-.18,4-.39,7.48-.45,10.94,0,.65.58,1.3.9,2-.48.72-1.27,1.4-1.39,2.18C99,80.13,97,88.09,92.85,95.34A19.93,19.93,0,0,1,91,97.73a183,183,0,0,1,6.46-42.56c.26-1-.33-2.19-.48-3,3.21-.31,1.44-4.37,3.7-5.68a32.72,32.72,0,0,1,.17,4.39c-.24,2.52.92,3.88,3,5.14,4.58,2.75,9,5.73,13.4,8.8a187.44,187.44,0,0,1,35,31.39c1.32,1.54,2.6,3.11,3.89,4.67a97.09,97.09,0,0,0-.05-12.25c-.06-2.45-.88-4-3.23-5a30.81,30.81,0,0,1-5.08-3.1C129.5,68.06,112.83,53.62,96.31,39c-.9-.79-1.74-1.65-2.61-2.48A189.12,189.12,0,0,1,126.77,57a203.42,203.42,0,0,1,28.42,26.12A39.69,39.69,0,0,0,155,79c-.08-6.27-1.56-11.68-8.21-14.12a3.39,3.39,0,0,1-.91-.68c-13-11-26.06-21.94-38.93-33.1-6-5.23-11.64-10.94-17.45-16.44,24.29,14,46,31,63.31,53.28l.93-.47-3.39-12-.1,0c.16-.72.62-1.53.44-2.16-1.19-4.26-2.51-8.47-3.79-12.7l-.06,0c2.07-.44.69-1.84.46-2.47Q141.05,21,134.52,3.84c-.28-.73-1.26-1.2-1.84-1.72l.6-1.27H165.1l-.49,4.36,19.28-2.1c-5.17,4-11.31,5.52-17.52,6.74a3.15,3.15,0,0,0-3,3,164.19,164.19,0,0,1-10.35,36.5,3.83,3.83,0,0,0-.54,1.87c1,4.91,2.06,9.81,3.12,14.7a116.79,116.79,0,0,0,4.29-11.21c5.75-15.79,11.82-31.41,25.23-42.81l-1.87-2.79c17.28,10.28,32.09,22.21,44.73,37A105.71,105.71,0,0,0,228.34,33a3.43,3.43,0,0,0-1.62-2.29C212.47,22.41,200.08,11.73,187.83.85h8a15.8,15.8,0,0,0,1.59,1.48c10.91,7.75,21.16,16.23,29.85,26.48a3.56,3.56,0,0,0,.89.54c0-4.08,0-7.94,0-11.8,0-1.89-.74-2.85-2.46-3.9C219,9.58,212.56,5.15,206,.85h9.09l12.61,12.37L227,.85h8c-5.07.9-5.26,4.42-4.56,8.45a35.3,35.3,0,0,1,.35,4c.12,2.18.2,4.36.3,6.74L249.78,2.12,246.94.85h29A25.74,25.74,0,0,0,278.73,2a96.64,96.64,0,0,1,24.42,10.4,59.6,59.6,0,0,0,8.87,4.2c3.23,1.29,6.59,2.25,9.9,3.36a11.7,11.7,0,0,0-2.66-2.66Q309.52,9.08,299.8.85h11.37a17.89,17.89,0,0,0,1.09,1.89c2.87,3.86,6.15,7.47,8.55,11.6,3,5.13,6.75,8.81,12.58,10.36a42.51,42.51,0,0,1,6,2.58l.41-.66c-1-1.27-2-2.48-2.84-3.81q-7.22-11-14.38-22h9.66l2.54,6.69,7.12-3.28V7.67l-6.54.92C336.77,13,338.08,17,339.42,21c.79,2.37,1.62,4.72,2.44,7.09V31l-1.3.39,0,0-12.3-6.16c-4.7-2.53-9.22-5.51-14.94-5.12-15.77,1.09-31.54,2.08-47.31,3.25a8.8,8.8,0,0,0-4.52,1.87c-8.67,6.91-17.94,12.61-28.77,15.5A3.24,3.24,0,0,0,230.86,43c-.51,3.94-.77,7.91-1.08,11.87a6.7,6.7,0,0,0,.16,1.48l22.45-17-7.84,1.32c.17-.39.19-.63.32-.71.8-.5,1.6-1,2.44-1.43a119.52,119.52,0,0,1,28.53-9.9A176.22,176.22,0,0,1,313,24.83c5.1,0,10.19.22,15.29.33-.9.25-1.78.58-2.7.74-18.89,3.4-37.79,6.74-56.66,10.24a11.88,11.88,0,0,0-5.36,2.71c-9.57,8.4-19.82,15.49-32.47,18.47a3.32,3.32,0,0,0-1.87,2.25c-.84,4.36-1.33,8.79-2.16,13.15-1.2,6.29-2.58,12.55-4,19.43a151,151,0,0,1,35.33-20.88c-2.46,2.54-5.1,4.82-7.66,7.19-.64.59-1.53,1.51-1.45,2.18a57,57,0,0,0,1.49,6.41l4.73-1.88a2.63,2.63,0,0,1-1.26,1.58c-2.6,1.58-3.06,3.58-2.48,6.67a190.82,190.82,0,0,1,3.46,41.5c-.07,2.3-.25,4.6-.43,7.57l10.85-8.82c-10.64-21.42-8.83-43.39-3.73-65.53a201.31,201.31,0,0,1,4.66,64.76l13.9-10.08C271.3,101.4,274,80,279.46,59.38a21.48,21.48,0,0,0,3.3-.65c9.81-3.94,19.42-8.47,29.44-11.75,9.67-3.16,19.75-5,29.65-7.48V44c-2,.66-4,1.24-5.87,2-.66.27-1.51,1-1.6,1.55a33.68,33.68,0,0,0-.08,4.82l7.55-1.56v6.25c-1.92.46-3.85.88-5.76,1.37-3.74,1-5.2,3.15-4.83,7.3l10.59-3v6.25c-3.62.55-7.24,1.17-10.87,1.62a4.22,4.22,0,0,0-3.58,2.61q-5.78,10.87-12,21.53c-2.15,3.71-4.68,7.21-7.51,11.52,5.5-2.64,10.22-4.89,14.94-7.18a2.09,2.09,0,0,0,.79-.78C326.94,93,330.2,87.61,333.59,82l-2.28-.17.64.39c2.15-2.09,4.34-4.13,6.42-6.28,1.24-1.28,2.32-2.71,3.47-4.08V83.83l-15.58,13.5,15.58-5.54v1.14l-6.8,2.78.24.51,6.56-1V96.9c-7.07-.87-13.34,1.32-19.36,4.82-4.43,2.58-9.08,4.8-13.5,7.12l32.86,3.4v41.49l-15.34-1.65c3.74,6.49,7.41,12.73,10.94,19,1.59,2.84,2.94,5.83,4.39,8.75v12.5c-9.47-12-17.44-24.94-22.8-39.35a3.25,3.25,0,0,0-3.09-2.3q-13.06-1.84-26.08-3.93c-4.8-.77-9.55-1.8-14.64-2.77.23,2.48.56,4.63.58,6.78s.9,2.67,2.85,3c8.12,1.26,16.25,2.51,24.28,4.18,6,1.24,11.78,3.11,17.66,4.7l-.14.62-28-1.76v7.42L305,172l-.33-4.74a9.54,9.54,0,0,1,1.3.91c9.12,8.79,18.29,17.52,27.29,26.42,3.06,3,5.71,6.45,8.55,9.7v6.82c-16.48-8.37-26.47-22.79-35.4-39a11.43,11.43,0,0,0-.69,2.13c-.14,7.29-.3,14.58-.27,21.87a4,4,0,0,0,1.78,2.47c9.3,6.49,18.65,12.9,28,19.32a3.1,3.1,0,0,0,.81.25l.93-2c-.77,4.11,2.79,5.3,4.84,7.45v4.55l-4.16-.89a63.18,63.18,0,0,1-.05,7.33c-.45,3.7,1.08,6.11,4.21,7.77v3.41l-4.09-.55a38.87,38.87,0,0,1,0,4.74c-.43,3.31,1.24,5.06,4.12,6v4l-4.18-.66a49.22,49.22,0,0,1-.38,6.21c-.78,4.08.83,6.64,4.56,8.08v4.55l-4.9-1.11c-.72,4.68-1.41,9-2,13.42a2,2,0,0,0,.28,1.55c2.17,1.88,4.43,3.66,6.66,5.47v4.55c-3.26-2.77-3.07-2.42-6.76-.47-5.47,2.89-11.22,5.28-16.88,7.8a48,48,0,0,1-4.89,1.57c1.54,2.05,2.75,3.85,4.17,5.47a2.57,2.57,0,0,0,2.12.66c7.43-1.73,14.84-3.56,22.25-5.36v25.58l-10.51,2,.28,2.52h-32.4c-3-3.22-6.13-6.39-9.08-9.69-5.1-5.7-9.82-11.68-12.68-19,19.33-7.66,39-12.93,60.26-14.45-3-2.81-5.53-5.13-7.93-7.61-1.27-1.31-2.2-1.24-3.6-.19a37.32,37.32,0,0,1-5.35,3.19c-12.07,6.2-25.07,8.14-38.44,8.41-1.85,0-3.7.29-5.57.45l-9.89-1.49c19.83-7.13,39.41-11.74,60.4-12.48l-11.26-11.87c-12.47,7.88-26.16,10.21-40.36,10.48a3.49,3.49,0,0,0-3.26,2.07c-10.63,17.07-23.13,32.14-42.69,39.6a2.34,2.34,0,0,0-1.27,1.74c.12,2,.54,4,.82,5.92,3.55.81,5.8-.13,8.34-2.5,8.49-7.94,17.28-15.57,26.25-23,4-3.28,8.64-5.73,13-8.56-8.49,13.42-18.55,25.38-32.68,34.61,6.59.52,12,2,17.28-2.67s11.75-8.08,17.69-12l.63.71L266.49,340l7.16,1.86h-29c-2.84-1.2-5.68-2.51-8.53,0H231l2.18-3.14-3.88-.91.57,4.05h-3.41c-.08-2.26.73-4.79-1.82-6.32-8.91-5.34-17.87-10.61-26.72-16-3.58-2.19-6.94-4.73-10.89-7.45a51.35,51.35,0,0,1,.58,7.1c-.16,2.65,1.1,3.91,3.14,5.35,8,5.64,15.86,11.56,23.77,17.37h-9.09L188.3,328.54c-1.54,7.52-1.41,7.84,4.22,11.55a24.69,24.69,0,0,1,2.13,1.76h-9.09c-.73-4.38-4.78-5.64-7.36-8.52l-1.7,3.94c-.37-4.1-.82-8.2-1.09-12.31-.26-3.85,1.18-8.18-3.32-10.72l3.29,1.34c.24-2.71.44-5.15.68-7.58.42-4.16-1.8-7.1-5.87-8-1.31,7.88-2.18,15.88-4.09,23.62-1.06,4.28-.14,6.77,3.34,8.9,2.44,1.49,4.78,3.12,7.17,4.69l1.38,2c-3.92-3.6-7.58-1.47-11.25.5-.33.18-.83.22-1,.49a8.6,8.6,0,0,0-.63,1.68H133.27c-.26-.8-.47-1.62-.78-2.41-2-5.19-2-5.19-7.67-5.19h-9l6.12,7.59h-8c-4.86-5.89-9.66-11.84-14.63-17.64a45.92,45.92,0,0,0-5-4.47c2.2-1.54-1.78-2.19-1.33-3.6,1.88.82,3.91,2.58,5.67,2.34,7.93-1.08,15.79-2.73,23.81-4.19a17,17,0,0,0-.5-1.8c-.61-1.57-1.27-3.11-2-4.79-16.07,3.68-32,2.47-48.12-.57,3.08,11.77,6.08,23,6.3,34.72H75.87c-.36-1.36-.66-2.73-1.07-4.07a120.51,120.51,0,0,1-5.34-38l2.16,6.74c.43.1.63.22.79.18a246.94,246.94,0,0,1,43-5.48c.72,0,1.4-1,1.73-1.31,4.85,2.55,10.19,1,15.29,1.85,0-.55,0-.67,0-.72l-7.58-8.83c-1.29-1.51-2.34-3.92-3.9-4.3s-3.81,1.08-5.74,1.74l-1.34.46c-13.59,4.42-27.4,4.16-41.29,1.93-4.61-.74-9.17-1.84-13.75-2.77,20.28-4,40.52-5.32,61.44-2.41-3.49-4.72-6.52-8.92-9.7-13a2.62,2.62,0,0,0-2.38-.48c-13.3,5.29-27,5.26-40.83,3-6.53-1.05-12.94-2.82-19.4-4.26l.14-.82c20.19-2.66,40.39-3,61.15.64-1.49-2.3-2.62-4-3.73-5.75-3.27-5.12-3.27-5.12-8.94-3.48-.27.08-.56.1-.83.18-15.82,4.22-31.49,2.53-46.72-2.32-6.19-2-9.59-1.16-13.62,3.94-3.15,4-4,7.3-3.23,12.17,2.54,15.22,4.68,30.51,3.36,46a2.68,2.68,0,0,0,.93,2.1c3.63,2.33,7.36,4.52,11.48,7-1.21-5-2.45-9.45-3.33-14s-1.64-9.32-2.12-14-.63-9.26-.75-13.89,0-9.19,0-13.78h.87l1,5c3,14.47,6,29,5.59,43.83-.16,6.3,1.67,9.48,7.17,11.48A76.5,76.5,0,0,1,64,340.23c-6.69-18.54-8.78-36.74-7.83-55.35,1.34,4.44,2.52,8.91,3.47,13.42,2.72,12.88,5.27,25.81,4.75,39.07C64.34,339.57,64.89,340.94,66.78,341.85ZM220.16,101.3l.49-6.25c1.09-4.71,2.19-9.41,3.25-14.13,0-.17-.33-.43-.5-.65.45-.53,1.2-1,1.29-1.6.69-4.29,1.34-8.6,1.77-12.92A3.73,3.73,0,0,0,225,63.13C219.94,59,214.64,55.23,209.67,51c-4.3-3.65-8.25-7.72-12.52-11.76l-4.5,8.39c6.33,5,12.47,10,17.74,15.85,4.17,4.63,8,9.57,11.94,14.42a11.71,11.71,0,0,1,1.17,2.47L203.79,65.26l-3.88,4.88c2.72,2.76,5.11,5.3,7.64,7.69a11.71,11.71,0,0,0,2.75,1.53,15.57,15.57,0,0,0,1.28,3c3,4.32,6.1,8.57,9.17,12.85L206.62,84.43l-3,3.37c2,2.26,3.75,4.27,5.59,6.16.56.58,1.73.65,2.15,1.28,2.4,3.56,4.66,7.22,7,10.85v1.14l-10.09-8.78a16.57,16.57,0,0,1-1.47,2c-12.78,13.18-26.91,24.15-45.57,27.64-.51.1-1.27.71-1.32,1.14-.51,5.3-.9,10.61-1.38,16.64,16.27-13.57,33.93-23.12,52.89-30.5a49.53,49.53,0,0,1-5.9,6.2c-13.12,12.13-27.42,22.06-45.67,24.74-.59.09-1.49.72-1.57,1.22-.93,5.73-1.74,11.48-2.62,17.53a10.71,10.71,0,0,0,1.3-.66,159.9,159.9,0,0,1,37.85-21c5.69-2.17,8.55-5,7.33-11.1a5.32,5.32,0,0,1,0-1l.43-.11,2.87,7.55,3.68-.93c-4.28,2.67-2,6-1.24,9.26q2.89,12.56,5.42,25.21c.79,3.94,1.17,8,1.81,12.45,3.42-4.15,6.57-7.89,9.58-11.75a2.69,2.69,0,0,0,0-2.44c-6.54-10.62-9.71-22.31-11-34.57a116.51,116.51,0,0,1,.24-28.37c7,20.35,11.62,41.15,12.27,63.35,4.65-4.93,8.82-9.26,12.83-13.74.45-.5.29-1.9,0-2.68-1.38-3.21-3.19-6.25-4.4-9.51-4.78-12.83-5.63-26.18-5-39.71,0-.7,0-1.41,0-2.4a43.46,43.46,0,0,1-5.16,1.56,34.1,34.1,0,0,1-4.81.18c2.25-1.42,4.36-3.17,6.78-4.19,4.65-2,4.45-5.82,4.56-9.92a50.39,50.39,0,0,0-6.14,1.67,5,5,0,0,0-2.47,2.38A67.08,67.08,0,0,0,220.16,101.3ZM34,138.45a36.13,36.13,0,0,1-3.91-.61c-2.16-.57-3.34-.11-4.15,2.25-2.78,8-5.9,15.94-8.72,24-1,2.77-1.45,5.72-2.33,9.32a9.81,9.81,0,0,0,1.07-1.25,195.31,195.31,0,0,1,18.14-32c.26-.36-.11-1.16-.2-1.76.53-.06,1.32.09,1.57-.21,3.14-3.83,6.21-7.72,9.61-12-4.37-.65-8.26-1.26-12.15-1.77a1.59,1.59,0,0,0-1.33.68c-1.31,3.39-2.51,6.82-3.71,10.14ZM145.65,313.7c-3.45-3.28-6.9-6.56-10.38-9.82-.51-.48-1.35-1.25-1.74-1.1-3.55,1.35-7,2.87-10.64,4.39,1.29,2.07,2.35,4,3.61,5.71a2.9,2.9,0,0,0,2,1.16c5.74,0,11.47-.23,17.21-.37L131,320.52c.7,1.35,1.71,3.05,2.48,4.85.66,1.54,1.54,2,3.25,1.84,5.56-.45,11.14-.71,16.72-1a40.74,40.74,0,0,1,4.31.24c-6.12,4.19-13,5.65-20.3,7l3,7.06c5.81-1,11.31-1.93,16.77-3a3.16,3.16,0,0,0,2-1.58c1.1-2.49,2-5.08,2.94-7.73-.6-.51-1.17-1-1.73-1.48Q153,320.25,145.65,313.7Zm-8.5-91.78c.64-2.16.55-4-2.38-4.94-.6,3.68-1.21,7.32-1.74,11,0,.22.54.53.83.79a52.08,52.08,0,0,0-2.32,6.68c-3,14.72-6,29.45-11.58,43.5-.25.64-.51,1.66-.2,2.09,2.71,3.64,5.55,7.19,8.35,10.76.78-22.25,6.1-43.09,14-63.69H135.2l7.15-3.89-.52-1c6.24-.2,11.12-4,16.92-5.35-2.39-3.78-5.11-5-8.84-3.19a7.36,7.36,0,0,1-3.3.74C141.77,215.19,138.37,216.94,137.14,221.92ZM194,216.17c.26-.08.67-.07.77-.25,3.26-5.32,6.52-10.63,9.68-16a2.36,2.36,0,0,0-.33-2,62.43,62.43,0,0,1-9-24c-.51-2.93-.89-5.88-1.42-9.45a95.65,95.65,0,0,1-30.38,16.17c4,6.62,4.9,6.92,11.44,4.1l1.83-.77c1.91-.82,4.6-1.15,5.5-2.6s.21-4.14.21-6.27a3.89,3.89,0,0,1,.31-.81l2.59,6.23,9.11-3a34.88,34.88,0,0,1-5.9,5c-1.77,1.17-1.7,2.35-1.23,4.25,2.42,9.8,4.61,19.66,6.88,29.51-2.08-3.64-4.7-7.08-6.12-11-2.18-6-3.54-12.23-5.31-18.57l-6.3,3.94c2.54,11.45,11.38,19,16,28.93l.79-.09Zm-42.82,45.63,6.2,2.26,1.7-4c.13,4.72.14,4.69,4.29,6.46,19.13,8.21,37.24,18.16,53.18,31.73.71.61,1.45,1.19,2.81,2.3-1-3.82-1.95-6.69-2.54-9.63-.67-3.32-2.16-5.59-5.65-6.53a25.6,25.6,0,0,1-5.33-2.63c-19.63-10.75-38-23.51-56.19-36.42-1.85-1.31-3.67-2.67-5.5-4,26,10.49,49.93,24.24,70.58,43.55-2.26-7.38-4.8-14.56-7.44-21.7a8.08,8.08,0,0,0-1.94-3.06q-20.73-19.2-41.57-38.28c-.51-.47-1.45-1.08-1.89-.9-3.49,1.46-6.9,3.09-10.73,4.85,23.47,10.78,42.16,26.75,58.06,46.2-10.54-7.5-20.93-15.19-31.38-22.81q-14.11-10.28-28.33-20.42c-4.42-3.17-6.3-2.38-7,2.82-1,7.21-1.87,14.45-3.06,21.63-2.18,13.16-4.53,26.29-9.23,38.86-.21.57-.43,1.49-.15,1.83,3.06,3.65,6.22,7.21,9.83,11.34-.48-20.19,3.22-38.76,9.68-56.87a30.63,30.63,0,0,1,0,5.29,49.4,49.4,0,0,0-.4,5.37c0,.92.79,1.81,1.23,2.72-2.44-.41-1.66,1.57-1.77,2.61-1.49,13.52-3.08,27-7.4,40a2.76,2.76,0,0,0,.18,2.27c3,3.23,6.05,6.33,9.22,9.59.34-.64.5-.8.49-1-.9-16,1.27-31.65,5.29-47.11.22-.85-.5-2.21-1.19-3A37.22,37.22,0,0,0,151.18,261.81ZM89.83,232.4a16.55,16.55,0,0,0,.75-2.18c3-19.64,9.59-38.13,18.51-55.76,2.63-5.19,4-9.47-.57-14-.09-.09,0-.33-.06-.75l5.49,5,3.4-6A46.78,46.78,0,0,1,116,164.9a3.09,3.09,0,0,0,.45,2.44c9.51,10,18.08,20.58,24.52,32.83.48.91,1.61,1.49,2.79,2.53a82.09,82.09,0,0,1,2.55-8.23c1.76-4.08.79-6.66-2.59-9.83-12.28-11.51-21.93-25.23-31.18-39.22-.1-.15,0-.45.09-1a159.73,159.73,0,0,1,35.61,43c1.15-5.18,2.16-9.56,3-14,.09-.44-.56-1.12-1-1.55-1.86-1.75-4-3.27-5.63-5.17-10.14-11.49-20.31-23-30.22-34.66-3.22-3.79-5.64-8.25-8.56-12.3a3.47,3.47,0,0,0-2.64-1.31c-5.81.67-11.61,1.52-17.4,2.4-.72.11-1.85.57-2,1.06a58.86,58.86,0,0,0-.92,6.06c2,0,3.52-.08,5,0,4.8.32,9.67.86,11.54-5.3l-1,5.28,13.44,2,0,1c-3.63.39-7.26.86-10.91,1.15-4.34.35-4.86.87-4.57,5.19l21.18,2,0,1.15a62.61,62.61,0,0,0-6.82.74,3.66,3.66,0,0,0-2.44,2c-3.68,12.8-7.22,25.64-10.8,38.47-3.45,12.39-7.39,24.6-12.94,36.25A2.94,2.94,0,0,0,84.3,220C86,224,87.81,227.93,89.83,232.4Zm207.3,21.2c-2.12-3.15-4.1-5.57-5.5-8.29-2-3.85-5-5.94-9-7.55a138.67,138.67,0,0,1-38.77-23.29c-4.62-4-9-6.13-15.12-5.31-4.06.55-8.25.1-12.68.1l.77,7.3,26.9,1,0,.93L217.28,222c-.48,5.14-.48,5.14,7.23,5.91a28.2,28.2,0,0,1-4.11,1c-2.67.2-3.36,1.47-3.64,4.15-1,9.68-2.44,19.31-3.76,29-.32,2.33-1.67,4.83-1.14,6.89,1.25,4.77,3.36,9.32,5.32,14.51,1.31-6.73,2.36-12.88,3.73-19,2.62-11.57,5.84-23,12.48-33a90.52,90.52,0,0,1,6-7.39l.76.52-1.86,11.7C259.87,235.2,278,244.59,297.13,253.61ZM186.69,13.67c-1.35,3.77-2.55,7.44-4,11-6.08,15.15-14.79,28.71-25,41.35-.72.89-1.59,2.13-1.49,3.13.3,3.25,1,6.46,1.48,9.24l28.22-33.65-2.23-3.23L187.78,44l7.33-6.85L184.44,25.37a144.94,144.94,0,0,1,42.48,37.76c.4-5.29.78-9.68,1-14.07,0-.59-.82-1.35-1.43-1.81-5.82-4.37-11.93-8.38-17.45-13.09C201.42,27.67,194.26,20.66,186.69,13.67ZM84,138.7c7.93-1.32,8.52-1.74,8.74-6.08-2.82-.15-5.65-.23-8.47-.46-1.64-.13-2.08.62-2.27,2.1-2.37,18.86-4.86,37.7-7.12,56.56a17.52,17.52,0,0,0,1,7.43c2,5.88,4.36,11.64,6.6,17.44a20.74,20.74,0,0,0,1,2c3.06-27,12.27-51.89,23.88-76.26-3.83-.29-7.28-.67-10.75-.71-.67,0-1.76,1.19-2,2Q91,156.47,87.72,170.26C85,181.62,82.27,193,79.55,204.36a164.29,164.29,0,0,1,10.59-64.47Zm202.08,98c-1-1.76-2-3.54-3-5.29-1.74-3-3-6.51-5.33-9a92.78,92.78,0,0,1-17.29-25.14c-1-2.11-2.14-2.84-4.49-2.71-14.29.79-28.57.85-42.72-1.86a2,2,0,0,0-1.69.51c-3.19,4.28-6.29,8.62-9.41,13,4.95-.74,10.92.82,12.31-6.26l.9,3.82c5.15,0,10,0,14.93-.06.46,0,.9-.84,1.2-1.15l29.5,3.64-.06.68-13.16,1.46C262,216.57,274.09,226.43,286,236.69Zm-3.11-115.41,6.54-4.16c5.23-3.31,5.26-3.31,4.13-9.46C291.27,95.11,293.35,83,297.1,71c.4-1.29.77-2.6,1.22-4.13l-4.52.72c6.65-1.21,7-7.15,9.46-12.24-6.93,1.66-13.3,3.31-19.73,4.65-2.3.48-2.73,1.31-2.49,3.57,1.07,9.86,2.33,19.74,2.66,29.64C284,102.48,283.23,111.73,282.93,121.28ZM221,295.92c8.74-18.7,20.08-34.7,33-49.85l-16.4-7.14a166.21,166.21,0,0,1-19.32,44.6,3,3,0,0,0-.37,2.12C218.74,288.82,219.76,292,221,295.92Zm3.83,14.87c12-16.61,26.38-29.85,42.4-41.89-5.22-1.31-10-2.27-14.62-3.77-2.87-.94-4.14-.54-5.52,2.34-5.61,11.68-13.13,21.83-24.44,28.73a2.43,2.43,0,0,0-1,1.95C222.49,302.17,223.59,306.15,224.8,310.79ZM240.16,155l.9,0c4-3.62,8-7.19,11.92-10.9a2.54,2.54,0,0,0,.41-2.34c-6.85-13.06-8.56-27.09-8.05-41.56.07-1.94,0-3.88,0-6-3,1.79-5.81,3.65-8.79,5.21-1.8.94-2.19,1.85-1.84,4,2,11.83,3.89,23.67,5.33,35.57C240.69,144.26,240.16,149.67,240.16,155Zm24.54-16.5a222.82,222.82,0,0,1,76.66,14.64c-.34-1.78-.53-2.88-.77-4-1.32-6-1.35-5.89-7.45-7-18.32-3.34-36.73-6.28-54.26-12.93a2.26,2.26,0,0,0-1.79,0C272.92,132.31,268.82,135.43,264.7,138.52ZM202,62.49,191.15,50.82c-.33.21-.53.28-.63.42-.39.53-.75,1.09-1.12,1.64-7.76,11.56-16.82,21.69-30,27.25a2.37,2.37,0,0,0-1.21,1.82c.3,4.11.78,8.2,1.16,11.84l33.28-26.56-4-5.54.42-.33,6.47,5ZM314.89,275.81c-3.15-3.76-5.76-7-8.5-10a2.38,2.38,0,0,0-2.15-.33,53.91,53.91,0,0,1-28.93,3.91c-6.2-.91-9.09,1.11-11.32,6.31-1.29,3-3.4,5.7-5.5,9.13C277.11,279.33,295.29,275.62,314.89,275.81Zm-64.62-14.74c18.37-1,36.24-.68,54.65,2.81-2.17-2.89-4-5.06-5.51-7.4-1.06-1.62-2.41-2.06-4.24-2.27-6.38-.73-12.79-1.4-19.08-2.6-6.93-1.33-13.75-3.22-20.82-4.92ZM93.45,245.74a66.39,66.39,0,0,1-35.9,1.47c-5.21-1.18-8.32-.21-10.88,4.2a56.4,56.4,0,0,1-4.59,5.87c20.34-1.94,39.73-1.48,59.45,2.71ZM123,217c-.33,1-.47,1.45-.6,1.89-3.42,11.78-6.78,23.57-10.29,35.32-1.06,3.57-3.91,7.21-3.44,10.46.5,3.45,3.94,6.49,6.13,9.68,1,1.48,2.13,2.89,3.43,4.64.64-5.93,1.08-11.2,1.81-16.43a188.87,188.87,0,0,1,8.77-34.82c.28-.81.56-2,.17-2.59C127.24,222.53,125.25,220,123,217Zm149.58,70.72c-4.81-.41-8.86-.66-12.88-1.15a4.09,4.09,0,0,0-4.28,1.81c-7.69,10.08-16.85,18.4-28.61,23.59-.63.28-1.51,1.2-1.43,1.69.8,4.82,1.78,9.62,2.83,15C240.77,312.52,255.61,299.59,272.59,287.76ZM322,62c-4.57,1-9,2-13.37,2.75-1.9.33-2.63,1.06-2.85,3A211.11,211.11,0,0,1,298,106.9L296.13,113c3.61-2,6.72-3.6,9.68-5.43a4.62,4.62,0,0,0,1.47-2.53c2.72-9,5.36-18.1,8.08-27.15.45-1.5,1.12-2.93,1.87-4.86l-6.31.84C317.05,72.36,320.49,68.34,322,62ZM160.25,113.27c11.53-11.47,24.35-20.17,37.88-28.1l-3-4.69c5.51,3.82,6.45,3.85,9.2.65l-7-7.88a4.25,4.25,0,0,0-.78.42C186.48,84.06,175.23,92.61,161,96.48c-.57.15-1.38,1-1.37,1.45C159.71,102.8,160,107.66,160.25,113.27ZM50.69,226.91c-2.64-1.21-4.77-2-6.73-3.12-1.69-1-2.69-.67-4.13.64-9.71,8.83-19.55,17.51-29.32,26.27-.52.46-1.18,1.18-1.17,1.76.16,5.23.46,10.46.72,15.74,6.93-5.41,7.72-13.13,8.74-20.75l1,7.75c.39,0,.64,0,.74-.09,4.31-4.5,8.62-9,12.86-13.58.32-.35,0-1.25,0-1.89l.47.65C39.78,236.49,44.49,231.18,50.69,226.91Zm241.75-54c0,1-.14,2-.13,3q0,23.7.08,47.39c0,4.92.24,5.15,5.79,6.27-.36-6,2.2-12.63-4.26-17.26l4.57,1.79c.31-3.58.36-6.89.94-10.11.66-3.7.7-7.08-2.24-9.89,0,0,.14-.29.29-.57l2.87,1.06,3.92-21.68ZM112.72,67.7a37.73,37.73,0,0,1,0,4.86c-.44,3,.81,4.7,3.25,6.45,15,10.74,28.54,23,39.68,37.83a7.82,7.82,0,0,0,1.33,1.07c0-5,.06-9.75-.07-14.44,0-.62-.84-1.35-1.45-1.8-7.66-5.69-15.5-11.13-23-17C125.87,79.42,119.69,73.71,112.72,67.7ZM223.26,317.8c-1.2-5.38-2.22-10.14-3.38-14.86a3.25,3.25,0,0,0-1.62-1.67c-11.6-6.13-23.26-12.15-34.82-18.35-4.28-2.3-8.34-5-12.89-7.78a22.79,22.79,0,0,1,0,3.49c-.58,3.31.83,4.93,3.88,6.36a186.42,186.42,0,0,1,36,22C214.57,310.3,218.58,313.87,223.26,317.8ZM97.86,247.74l.66-.25c.54-3.64,1-7.29,1.63-10.91,2.77-15.54,7.84-30.36,14.07-44.81.39-.91,1-2.14.64-2.87-1-2.29-2.4-4.4-4-7.13-.79,2.34-1.38,4.08-2,5.82-5.12,15.33-10,30.74-17.67,45.09A2.39,2.39,0,0,0,91,234.5C93.24,238.94,95.56,243.33,97.86,247.74ZM44,238.38l.27.7A183.38,183.38,0,0,1,92.48,244c-2-4.12-3.63-7.72-5.48-11.21a2.9,2.9,0,0,0-2.37-1.21c-10.16,1.52-20,0-29.61-3.2a3.16,3.16,0,0,0-2.72.45C49.42,231.9,46.74,235.17,44,238.38Zm8-178.46c3.3,2.76,6.29,5.36,9.41,7.81a10.5,10.5,0,0,0,3,1.11,10.58,10.58,0,0,0,.78-3A193.08,193.08,0,0,1,67.36,28c.29-1.83.48-3.67.75-5.86-3,1-5.62,1.75-8.13,2.78a2.75,2.75,0,0,0-1.22,2.14C58.83,38.47,57.13,49.47,51.95,59.92Zm227,67.77.18.76c20.21-.11,39.76,3.81,59,9.61.75-5.81.23-6.5-5-7.75-13.23-3.15-26.54-6-39.16-11.26a2.87,2.87,0,0,0-2.29.21C287.45,122,283.23,124.87,279,127.69ZM205.41,258.43a17.94,17.94,0,0,0-.83-2.27c-3.38-6.44-6.72-12.9-10.22-19.27-1.52-2.78-2.43-6.5-7.09-5.33.3-2.67,3-5-.45-6.93l.38,3.73A5.62,5.62,0,0,1,185,226c-2.52-5.78-5-11.6-7.42-17.41l-2.44-5.77-14.74,8.47c3.43,5.51,8.11,3.78,12.93,2.53l-5.37,3.68C182.73,229.38,194.73,243.25,205.41,258.43Zm-42.83,68.46,1-.21c.15-1.31.4-2.62.45-3.94q.46-12.74.83-25.48c0-1-.57-2.07-.36-3,.61-2.76,1.51-5.44,2.2-8.18a1.72,1.72,0,0,0-.45-1.48c-2.46-1.8-5-3.51-7.65-5.34a9.91,9.91,0,0,0-.34,1.26c-1,12-2.27,23.9-5.81,35.46a2.32,2.32,0,0,0,.34,2C156,321,159.29,323.92,162.57,326.89ZM147.75,199.79l-.23-.74,19.08-10.89c-1.18-2.06-2.21-4.18-3.56-6.08a3.28,3.28,0,0,0-2.54-1,48,48,0,0,0-7,1,3.41,3.41,0,0,0-2.29,1.54c-2.09,6.34-4,12.74-6,19.27a26.62,26.62,0,0,1,4.23,2.29c3.59,2.86,7,2.72,11.08.72s8.72-3.37,13.3-5.09L169.93,194C162.64,197.06,155.52,199.77,147.75,199.79ZM35.7,164.1l-22,22.71-.77-.58c5.81-8.12,11.56-16.28,17.44-24.34,2.32-3.18,2.46-3.09-.59-6.47-5.05,6.67-10.08,13.27-15.06,19.91a5.18,5.18,0,0,0-.72,2.13c-1,5.38-2,10.75-2.91,16.14-.36,2.14-.54,4.31-.74,6l28.83-30.79ZM225,334.33l.8-.59c-.72-4.46-1.37-8.93-2.21-13.36a3.77,3.77,0,0,0-1.69-2.26c-10.3-5.75-20.69-11.34-31-17.12-3.66-2.06-7.1-4.51-10.76-6.85-1,6.21-.67,7,4.25,9.74,13.25,7.41,25.72,15.92,36.8,26.35C222.57,331.51,223.75,333,225,334.33ZM193.53,151.95a6.13,6.13,0,0,0-1,.13c-11.1,7.06-22.69,12.83-36,14.16a1.94,1.94,0,0,0-1.41,1.08c-1.14,4.72-2.16,9.46-3.32,14.65,1-.59,1.69-.93,2.31-1.29,5.37-3.12,10.59-6.58,16.16-9.29,6.86-3.34,14-6,21-9.1.88-.39,2.11-1.26,2.18-2C193.69,157.59,193.53,154.86,193.53,151.95ZM74.21,192.21a174.4,174.4,0,0,1,2.36-60.27c-4.55-.91-8.81-2-11.75,2.73-.68,1.09-2.34,2.13-2.24,3.05.44,4.06,1.35,8.07,2.15,12.4l7.66-4.75c-1.78,2.61-4.73,4.33-6,6.88-2.25,4.61,1,9.24,1.37,13.92,0,.45,1,.84,1.51,1.28C67.73,169.73,70.8,186.83,74.21,192.21Zm82.15-53.91c.27-6.1.56-11.45.68-16.81a3.39,3.39,0,0,0-1.38-2.16c-5.62-4.45-11.35-8.77-16.93-13.27-3-2.41-5.76-5.09-9.13-8.08-.15,2.84-.15,5.07-.43,7.27a4.94,4.94,0,0,0,1.86,4.62c4.69,4.52,9.32,9.12,13.65,14C148.62,128.26,152.14,133,156.36,138.3Zm123.09,44.38c0,.8,0,1.26,0,1.71,1.51,12.86,3.32,25.69,4.44,38.58.64,7.42,3.41,13.52,8.86,19.55-6.08-23.42-8.46-46.35-5-70l-9.38-.43c-.29,7.46,0,7.84,6.1,9.85.06,0,0,.29.07.49Zm-163.8,20.75c-.39,1-.52,1.37-.64,1.71-4.78,13.44-9.36,27-14.49,40.26-1.16,3-1.38,5.06.43,7.64,2.06,2.94,3.81,6.1,5.69,9.17a39.45,39.45,0,0,0,1.45-7.59c1.81-14.33,5.73-28.12,10.69-41.65A4.53,4.53,0,0,0,119,210C118.18,208,117,206,115.64,203.43Zm9-75.49a26.65,26.65,0,0,1-2.05,4.43c-1.52,2.12-.73,3.32,1,4.89,9.24,8.55,17.65,17.82,24.32,28.57,1.09,1.77,2.32,3.45,4,5.89.83-5.25,1.59-9.59,2.14-14a3.22,3.22,0,0,0-1.14-2.25c-4.53-4.14-9.29-8-13.68-12.33C134.25,138.37,129.65,133.23,124.63,127.94Zm77.48,16.93c-2,1.47-3.54,2.5-4.93,3.73-.89.79-2.34,2.14-2.13,2.8a77.93,77.93,0,0,0,3.57,8.41c0,.11.28.13-.28-.11l7.7,37.87,8.55-12.13C206.26,173.32,203.35,159.59,202.11,144.86ZM29.41,272.27c-2.09,2-3.67,3.6-5.4,5-1.53,1.28-1.82,2.73-1.81,4.69,0,10.38-.17,20.76-.26,31.14,0,.69.06,1.7.49,2,3.74,2.74,7.57,5.35,11.38,8C29.56,306.31,28.81,289.52,29.41,272.27Zm227.84-81.69a50.56,50.56,0,0,1-2-5.24c-.53-2.14-1.8-2.55-3.87-2.74-8.92-.83-17.82-1.94-26.73-2.89-.93-.1-2.31-.11-2.78.44-3,3.46-5.78,7.1-8.64,10.68C227.94,188.83,242.33,189.15,257.25,190.57ZM201.62,90c-.69.61-1.19,1-1.65,1.48-11,10.6-23.12,19.24-38.45,22.41a2.06,2.06,0,0,0-1.33,1.41c-.11,3.81-.06,7.63-.06,12,14.18-12.89,29.94-22.46,46.76-30.76ZM38,11.16c-1.93.61-3.67,1.31-5.47,1.71s-2.11,1.39-2.11,3a66.23,66.23,0,0,1-.5,10.17c-.86,5.37-2.18,10.67-3.35,16.21l13,8.46c-.48-5-1-9.37-1.29-13.78s0-8.92-.56-13.3C37.17,19.53,38.83,15.52,38,11.16Zm90.33,104.24c-2.34,5.51-2.09,6,1.7,10,5.74,6.13,11.37,12.38,16.82,18.77,2.67,3.13,4.83,6.7,7.69,10.74.56-5.19,1.12-9.65,1.45-14.13,0-.65-.9-1.51-1.57-2.05-2.91-2.4-6-4.57-8.81-7.11C139.79,126.38,134.17,120.93,128.31,115.39ZM47.65,216.58,85.41,229.3c-1.19-2.84-2.4-5.9-3.78-8.87A3.68,3.68,0,0,0,79.75,219c-7.66-3.19-15.34-6.37-23.05-9.43a3,3,0,0,0-2.63.42C51.8,212.07,49.73,214.4,47.65,216.58ZM7.38,232.89l.88.35c9.19-12.41,20.3-22.92,32.31-32.56-4.12-3.76-4-3.62-8-.66C25,205.72,17.2,211.24,9.52,216.87c-.55.41-1.24,1.08-1.29,1.67C7.87,223.31,7.65,228.1,7.38,232.89Zm272.71,81.2c0-.19-.07.06,0,.14,4.78,3.7,9.55,7.41,14.38,11a2.49,2.49,0,0,0,2,.17q7.58-2.78,15.09-5.75a2.49,2.49,0,0,0,1.44-1.66c0-2.24-.19-4.5-.29-6.26Zm57.35-190.18a10.93,10.93,0,0,1,0-2.18c.56-3.07-.74-4.1-3.76-4.73a150.54,150.54,0,0,1-20.53-5.4c-4.51-1.63-8-1.29-11.67,1.5a72.43,72.43,0,0,1-6.45,4ZM138.09,218.72c1.58-4.36,2.89-8.09,4.31-11.79.56-1.46.13-2.27-.94-3.39q-6.86-7.13-13.4-14.57c-2.14-2.42-4-5.08-6.34-8.11-.73,2.73-1.33,4.79-1.8,6.88a3.48,3.48,0,0,0,0,2.38c1.61,2.28,3.44,4.41,5.37,6.82l2.73-4.61c-.26,2.94-1.1,5.5-.51,7.67.63,2.34,2.63,4.31,4,6.47.75,1.2,1.45,2.44,2.11,3.69C135,212.84,136.41,215.5,138.09,218.72ZM274.39,8c-4-1-7.27-1.68-10.38-2.67a5.91,5.91,0,0,0-6.36,1.41,64.2,64.2,0,0,1-24.32,13.65c-2.39.68-2.76,1.84-1.89,4.05.76-.2,1.48-.36,2.19-.57,4.45-1.29,8.81-3.13,13.35-3.78a45.68,45.68,0,0,0,21.75-8.77A59.57,59.57,0,0,1,274.39,8Zm-8,186.2c6,11.94,10.1,24.38,17.53,35.19-.74-3-1.8-5.89-2.77-8.8a184.93,184.93,0,0,1-8-35.62c-.09-.77-1-2-1.52-2-3.26-.2-6.55-.1-10-.1,1.68,5.59,3.37,10.47,10.11,10.16a5.93,5.93,0,0,1,1.35.48Zm-231,25.39c-3.71-3.21-3.61-3.08-7.72.17-6,4.74-12.19,9.27-18.28,13.91-.5.38-1.29.91-1.27,1.35.18,4.35.51,8.69.79,12.92Zm25.64-17.07,19.57,15.67c-1.9-5.34-3.58-10.1-5.3-14.85-.12-.32-.49-.57-.78-.8L59.56,191,53,197.41a40.76,40.76,0,0,0,4.44,2.85,26,26,0,0,0,4.3,1.28Zm-7.9-75.82.38.2A13.35,13.35,0,0,0,50.72,129c-5.38,6.7-10.68,13.47-16,20.23-1,1.31-2.05,2.63-3.06,3.93,3.52,3,3.37,2.85,6.24.08C43.27,148,48.84,143.07,54.28,138c.7-.66,1.64-1.6,1.63-2.4-.06-3.82-.41-7.63-.65-11.44l-.63-.22ZM50.44,18.54c-4,.69-4,.69-4,4.59,0,9.25-1.4,18.23-5.16,26.77a2.54,2.54,0,0,0,.4,2.34c2.92,2.33,6,4.47,8.78,6.52ZM248.69,152.24l.25.6h24.19L274.8,144c-3.74-1.17-7.32-2.34-10.94-3.37a2.6,2.6,0,0,0-2.06.42C257.39,144.72,253.05,148.49,248.69,152.24Zm-25,25.66,28.52-1.11a41.67,41.67,0,0,0-1.75-5.72A4.22,4.22,0,0,0,248,169c-3.83-1-7.73-1.69-11.62-2.39a3.35,3.35,0,0,0-2.55.35C230.51,170.41,227.32,174,223.73,177.91ZM47.15,245a33.06,33.06,0,0,1-4-1.33c-2.22-1.05-3.64-.45-5.29,1.37-4.56,5-9.35,9.86-14.12,14.7a9.22,9.22,0,0,0-1.93,11.14ZM151.63,46.81l3-35.19h-10.2C147,23.56,146.14,36,151.63,46.81Zm-127.58-6L21.33,15.86c-2,.3-3.85.68-5.71.84-1.67.14-2.13.86-2.21,2.53-.21,4.33-.76,8.64-1.05,13a3,3,0,0,0,.77,2.33C16.65,36.7,20.28,38.66,24.05,40.79ZM11.47,179.41c2.65-5.57,5.65-22.71,5.74-33.35l-9.39-1.33Zm-2.9,34.15,22-20.5-4-3.48c-5.43,3.91-10.69,7.69-15.92,11.52a2.25,2.25,0,0,0-.83,1.37C9.32,206.82,8.84,211.18,8.57,213.56Zm46.6-100.28c-5.61-.76-11.3-1.58-17-2.25a2.3,2.3,0,0,0-1.83,1.13c-1,2.4-1.87,4.89-2.86,7.58a108.73,108.73,0,0,1,10.38,3.53c3.1,1.4,4.63.12,6-2.32L48.36,120C53.81,118.64,55.58,116.92,55.17,113.28ZM297.59,327.8l12.85,13.52,9.09-4.36c-1.36-3.37-2.63-6.6-4-9.78a1.89,1.89,0,0,0-1.53-.8C308.64,326.79,303.32,327.29,297.59,327.8Zm-99-95.77c3.69,11.27,5,22.89,11.59,32.29l-2.14-33.12ZM11.76,292.47l-1.62-1c-.49,4.11-1,8-1.4,12A2,2,0,0,0,9.12,305c3.53,2.86,7.13,5.64,10.95,8.64L16,285C13.89,287.23,10,287.88,11.76,292.47ZM102.28,322c3.12,2.79,6.32,5.67,9.55,8.51a1.76,1.76,0,0,0,1.29.41c4.88-.91,9.74-1.89,14.89-2.9-.86-2.21-1.54-4.16-2.42-6a2.19,2.19,0,0,0-1.69-1C116.75,321.32,109.61,321.69,102.28,322ZM271.46,16l.25.84c7.16,0,14.34-.31,21.48.09s14.1,1.51,21.41,2.34a5.32,5.32,0,0,0-1.13-.73q-17.19-4.72-34.4-9.35a2.41,2.41,0,0,0-2,.58C275.16,11.79,273.33,13.93,271.46,16ZM40.28,159.55l5.31,4.7c4.06-3.07,8-6.05,12-9.1a1.87,1.87,0,0,0,.71-1.4c-.49-3.38-1.1-6.75-1.6-9.73Zm231.89,5.76c.11-1,.14-1.86.31-2.67.56-2.72-.36-3.89-3.29-4a54.79,54.79,0,0,1-8.34-1.38c-4-.8-8-1.7-12.44-2.65,1.45,3.15,2.65,5.89,4,8.57a2.41,2.41,0,0,0,1.65,1.17C260,164.71,265.89,165,272.18,165.31ZM60.55,117.36c6.59-.48,13.15-1,19.7-1.48a1.85,1.85,0,0,0,1.36-.73c1.25-2.69,2.38-5.43,3.68-8.45-5.23.51-10,1.25-14.76,1.34-3.16.06-4.79,1.45-6.05,4.23,1,.48,1.93.9,2.84,1.37s1.77,1,3.1,1.74C61.93,114.2,61.93,114.2,60.55,117.36ZM316.82,258.45c-.46-2.62-.79-4.74-1.22-6.83-.26-1.27-.27-3-1.08-3.68-3.59-3.12-7.43-6-11.48-9.13-.63,4-1.26,7.71-1.75,11.41a1.86,1.86,0,0,0,.91,1.45C306.86,253.89,311.56,256,316.82,258.45Zm-.73-43.32c.52,2.5,1,5,1.56,7.43.23,1,.36,2.34,1,2.82,4.66,3.31,9.46,6.44,14.51,9.83.48-2.89,1-5.45,1.29-8a2.23,2.23,0,0,0-.86-1.78C327.9,222,322.13,218.65,316.09,215.13ZM84.63,115.68l19.23,1.72a9.3,9.3,0,0,0-.57-1.11,67,67,0,0,1-5.12-6.75C95.71,105.31,92.51,104,88,106c-.17.07-.42,0-.54.14-.62.58-1.6,1.12-1.74,1.82C85.21,110.4,85,112.94,84.63,115.68Zm-5.48,5.72H59.32l2.14,11L73,126l-2.07,3C77.74,129,78.14,128.59,79.15,121.4ZM328,333.37c3.79-1.39,7.42-2.67,11-4.09a2.07,2.07,0,0,0,.92-1.69c-.23-2.6-.65-5.19-1-7.9l-15.64,5.16Zm-21.15-272c5.27-1.83,10.34-4,15.63-5.28,4.6-1.09,5.86-4.6,8.28-8.35-6.6,1.87-12.48,3.56-18.38,5.2s-6.05,1.66-5.84,7.93C306.56,61,306.66,61,306.87,61.38ZM193.28,220.25c5.35-.92,10-1.67,14.59-2.56a2.47,2.47,0,0,0,1.63-1.47c.56-2.36.88-4.78,1.32-7.38-2.95-.51-5.7-1-8.47-1.4a2.07,2.07,0,0,0-1.53.92C198.36,212.13,196,216,193.28,220.25ZM64.22,186c1.68,2.39,3.32,4.68,4.92,7s3.06,4.47,5,7.32c-2.1-10.18-4.95-19.16-10.49-27.39L58,178.06l5.25,6.67,4-2.16ZM248.46,24.62c-5.82.47-10.87.84-15.91,1.32-.49,0-1.32.73-1.33,1.13-.1,4.16-.06,8.32-.06,12.61ZM28.63,187.53c2,.45,3.5.87,5,1.12,1,.15,2.24.43,2.9,0,4-2.81,7.84-5.81,11.9-8.88l-5.06-5.47Zm-8.51-51.43-15.48-3c.58,2.35.95,4.09,1.45,5.8.25.86.51,2.14,1.13,2.41,3.39,1.49,6.89,2.74,10.46,4.1Zm235.47,34.2c1.13,2.47,2,4.44,2.95,6.34a2.27,2.27,0,0,0,1.46,1.07c4.07.6,8.16,1.09,12.42,1.65,0-2.22.11-4.27-.08-6.3a2.26,2.26,0,0,0-1.6-1.43C265.9,171.11,261,170.75,255.59,170.29ZM59.38,159l-9.25,9.85,5.48,6.19,7.39-4.6ZM22.74,327,8,334.68l2.12,6c3.65-1.4,7.1-2.67,10.48-4.07A2.41,2.41,0,0,0,22,335.1C22.31,332.51,22.48,329.9,22.74,327Zm46-254.83L79.7,84.39V68.94ZM292.92,228.46c-2.13,9.87,1.28,20.8,6.74,21.75-.35-4-1-8.06-.95-12.07C298.81,233.53,295.8,231.23,292.92,228.46ZM40.7,330.87c-.09-.47-.06-.75-.16-.81C36.71,327.67,32.9,325.25,29,323c-1.41-.82-4.16,1.47-3.77,3.16.62,2.71,1.49,5.36,2.29,8.14ZM247.26,81.71l-15.84,9,1.68,5.34c4.22-2.19,8.15-4.18,12-6.28a2.78,2.78,0,0,0,1.24-1.69C246.76,86.07,247,84,247.26,81.71Zm57.45,122.67c0,4.36,0,8.29,0,12.22a1.59,1.59,0,0,0,.65,1.16c2.31,1.34,4.67,2.6,6.9,3.83C314.39,213.91,311.74,208.59,304.71,204.38ZM141.65,3.07l2.48,7.65c2.81-.8,5.33-1.55,7.87-2.22,4.29-1.12,5-2.12,4.75-6.79ZM34.59,213.93l.14.92c2.36.12,5.21,1.13,7,.16,3.64-2,6.71-5,10.29-7.83-1.93-1.11-3.59-2.14-5.33-3a1.91,1.91,0,0,0-1.7.27C41.48,207.58,38,210.77,34.59,213.93Zm132.92,67.63c.58-2.11,1.1-3.82,1.49-5.56.13-.59.17-1.59-.16-1.82-3.09-2.17-6.28-4.22-9.85-6.57-.2,3.56-.42,6.29-.45,9a2.25,2.25,0,0,0,1.11,1.67C162.13,279.43,164.67,280.4,167.52,281.56ZM29.66,47.77,23.91,58l18.49-1.43ZM193.42,221.15c1.15,2.37,2.08,4.53,3.23,6.56a2.47,2.47,0,0,0,2,1c3.27-.29,6.51-.76,10-1.21l.28-5.26Zm132.07,51.51c-1.53,7.72,1,13.28,7.86,16.94-.44-3.85-.86-7.57-1.29-11.29a8,8,0,0,0-.29-1.95,2.76,2.76,0,0,0-1.09-1.44C329,274.09,327.27,273.42,325.48,272.66ZM113.21,81.47l-.78.49c-.55,3.32-1.14,6.63-1.63,10a2.19,2.19,0,0,0,.41,1.74c1.81,1.44,3.74,2.74,5.84,4.24.93-2.9,1.82-5.44,2.53-8a2.54,2.54,0,0,0-.52-2C117.18,85.68,115.17,83.59,113.21,81.47Zm-97,185.59c-6,3.9-6,3.9-5.92,10.2,0,1.51-.09,3,0,4.54s.42,3.19.65,4.85C17.23,281.19,16.57,274.26,16.16,267.07ZM290.3,161.26c-2.58-.29-4.73-.56-6.88-.78s-4.21-.39-6.58-.6a43.28,43.28,0,0,0,.58,4.67c.16.68.73,1.67,1.27,1.78,3.2.7,6.45,1.19,9.86,1.78ZM13.37,14.81c2.62-1.26,4.83-2.26,7-3.39a2.15,2.15,0,0,0,1.1-1.4c.11-2.4.05-4.8.05-7.47l-9.7,3ZM114.62,170.26c-4.21,8.79-3.94,10.74,2.15,15.9,1.07-2.15,2.18-4.22,3.11-6.36a2.52,2.52,0,0,0-.2-2C118.12,175.31,116.43,172.93,114.62,170.26ZM57.26,188.58l-5.34-5.07-9.1,8.07c5,3.63,5,3.62,9.42.45C53.77,190.94,55.34,189.9,57.26,188.58Zm69.32-83.51c.74-2.07,1.55-4.25,2.27-6.47a1.78,1.78,0,0,0-.16-1.49c-2.23-2.23-4.53-4.38-7.32-7C121.32,96.16,118.44,102.28,126.59,105.07Zm-1.13,100.41c-.46,2.81-1.66,5.26-1,6.93,1.45,3.55,3.89,6.7,6.12,10.35,1-2.38,1.9-4.32,2.64-6.32a2.15,2.15,0,0,0-.13-1.78C130.77,211.75,128.35,208.92,125.45,205.48Zm-9-86.57L112,127.26l7.38,5.95C120.49,127.74,123.09,122.4,116.49,118.91ZM331.32,266.14c0-1.92,0-3.86,0-5.8,0-1,.34-2.67-.13-3-2.5-1.53-5.21-2.71-7.88-4C322.76,259.89,324.33,264.59,331.32,266.14ZM314,237.83c-.54-2.63-.33-5-1.42-6.25-2.31-2.64-5.28-4.69-8.35-7.29-.22,2.58-.45,4.71-.54,6.85,0,.57.19,1.48.58,1.7C307.2,234.45,310.21,235.92,314,237.83Zm-7.45,23-.49.41,17,19.17a50.4,50.4,0,0,0-2.89-9.7,3.41,3.41,0,0,0-1.18-1.51C314.86,266.36,310.69,263.59,306.54,260.81Zm-57.74-96.5-2.28-9.86-10.3,10.69ZM170.49,287.6c-1,8.94-.12,10.47,6.69,11.91.35-1.74.8-3.47,1-5.23a2.41,2.41,0,0,0-.66-1.93C175.37,290.76,173.08,289.32,170.49,287.6Zm10,19.86c-.17.29-.26.37-.26.45-.09,2.16-.16,4.32-.26,6.47-.19,4.13.34,4.8,4.74,5.93C186.69,311.56,186.39,310.63,180.51,307.46Zm150.8-58.94.93-.24c-.21-1.82.24-4.6-.76-5.28-3.25-2.25-7-3.73-10.59-5.51l-.65.39c.68,1.63.92,3.8,2.12,4.8C325.1,244.93,328.3,246.61,331.31,248.52ZM179.67,321.73c-.41,3.07-.83,6-1.15,9a1.74,1.74,0,0,0,.73,1.35c1.64,1,3.36,1.87,5.19,2.87C185.11,325.43,184.91,324.86,179.67,321.73ZM46.5,15.25c7.58-.85,5.23-7.21,6.81-11.75C45.55,6.42,44.69,8,46.5,15.25ZM72.7,82.68l.38-.34c-2.81-2.61-5.6-5.25-8.45-7.81A2.26,2.26,0,0,0,62.86,74c-2.39.61-4.73,1.39-7.88,2.34ZM118.2,194.89c-2.7,6.66-2.42,7.9,2.6,12.13C123.84,202.28,123.58,201,118.2,194.89Zm26.24,9.66-4.23,11.14,10.66-5.8c-.77-.54-1.24-.82-1.65-1.17C147.74,207.45,146.28,206.16,144.44,204.56Zm-22-86.51c2.67-7,2.43-8-2.44-11.14C117.59,116.21,116.7,113.82,122.44,118Zm43.15,212.83v5.94l7.39-.54Zm-101.85-222H57.52C59.58,110.58,61.61,111.7,63.73,108.92Z"/><path class="cls-1" d="M150.39,55.44,94.63.85h5.68a4.93,4.93,0,0,0,.88,1c14.63,9.6,26.83,21.78,37.24,35.73,4.27,5.72,7.93,11.91,11.86,17.89Z"/><path class="cls-1" d="M146.94,40.62c-2.89-3.44-5.8-6.86-8.65-10.32q-11-13.32-21.9-26.68c-.7-.86-1.25-1.84-1.87-2.77h8c5.66,8.22,11.55,16.3,16.88,24.73,3,4.73,5.05,10,7.53,15.08Z"/><path class="cls-1" d="M85.53,341.85l-5.6-25,1-.25a127,127,0,0,1,7.43,25.28Z"/><path class="cls-1" d="M341.85,106l-20-2.49,0-.4,20-1.66Z"/><path class="cls-1" d="M94.06,341.85l-4.6-5.17.23-.47,9.49,5.64Z"/><path class="cls-1" d="M86.63,10l1.63-.9L85.53.85h2.84c.14,2.06.19,4.13.44,6.17A2.36,2.36,0,0,1,86.63,10Z"/><path class="cls-1" d="M67.92.85l9.75,4.71L76.44.85h1.71V5.71l-4.58-.26a8.17,8.17,0,0,0-1.67-1.5c-2.24-1.1-4.54-2.07-6.82-3.09Z"/><path class="cls-1" d="M49.73,341.85l5.08-2.29,2.61.5L56,341.85Z"/><path class="cls-1" d="M340.55,31.36c-18.1,6.82-36.9,11.06-55.75,15.11-3.51.75-7,1.58-10.56,2.12A15.74,15.74,0,0,0,265,53.38c-8.81,8.84-18.65,16.31-30.64,20.45A18,18,0,0,1,228,74.9a34.32,34.32,0,0,1,3.16-2.81c9.15-6.37,18.76-12.16,27.37-19.19C265,47.62,272.65,45.73,280,43a203.43,203.43,0,0,1,24.45-7.19c8.18-1.88,16.54-3,24.86-4.19,3.68-.51,7.48-.2,11.23-.25C340.57,31.4,340.55,31.36,340.55,31.36Z"/></g></g></svg>