<?xml version="1.0" encoding="utf-8"?>
<!-- Generator: Adobe Illustrator 21.1.0, SVG Export Plug-In . SVG Version: 6.00 Build 0)  -->
<svg version="1.1" id="Layer_1" xmlns="http://www.w3.org/2000/svg" xmlns:xlink="http://www.w3.org/1999/xlink" x="0px" y="0px"
	 viewBox="0 0 1128.2 649.8" style="enable-background:new 0 0 1128.2 649.8;" xml:space="preserve">
<style type="text/css">
	.st0{fill:none;stroke:#000000;stroke-width:4;stroke-linecap:round;stroke-linejoin:round;}
</style>
<title>phoneAsset 1</title>
<g id="Layer_2">
	<g id="Layer_4">
		<path class="st0" d="M1028.8,8.4c0,0,88.3,22,97.5,107.4s-70.3,322-264.2,462.5c0,0-91,56-166.7-36.2c0,0-40.5-12.5-0.1-54.5
			s99.2-100.9,137.9-56.7c0,0,18.1,30.4,14.2,37.5s170.8-106.1,176.2-283.1c0,0-60.3,5.6-69.5-27.2s7.1-103.3,27.7-137.8
			S1028.8,8.4,1028.8,8.4z"/>
		<path class="st0" d="M988.7,183.8c0,0-45.4-65.2,40.1-175.3"/>
		<path class="st0" d="M695.3,542.2c0,0,53.1-110.5,137.8-111.2"/>
		<polyline class="st0" points="737.9,579.2 705.3,602.5 682.2,573.6 707.3,555.5 		"/>
		<path class="st0" d="M694.3,590.2c-27.8-0.6-58.1,20.3-65.3,46.9c-1.8,6.6,4.8,12.5,11.1,9.7c8.5-3.7,15-13.5,13.7-23.1
			c-1.9-14.2-16.1-24.3-30.3-25.6s-28.2,4.3-40.7,11.1c-5.4,2.9-11.1,7.7-13.3,13c-2.1,5.2,1.6,10.8,7.2,11.2
			c13,0.8,26.3-17.1,20.7-30.9c-6.6-16.4-27-22.6-44.6-21.4c-18.3,1.4-35.5,8.5-49.4,20.2c-6.7,5.6-0.9,16.5,7.5,14.1
			c11-3.1,21.2-14.5,19.5-26.5c-2.7-18.9-24.2-30.3-43.2-29c-12.9,0.9-26.9,12.3-27.3,23.2c-0.2,6.2,6.4,10.3,11.9,7.5
			c10.4-5.3,15-22.4,8-33.3c-8.7-13.5-26.6-17.7-42.7-17.9c-12.6-0.1-26.7,2.3-34,12.5c-5,7-3.4,17.8,2.1,23.5
			c6,6.3,16.5,0,13.7-8.2c-2.2-6.5-8.8-13.5-15.5-16.8c-19.8-9.8-45-15.5-63-2.6c-15.2,10.9-14.1,38.6-0.1,46.8
			c4.8,2.8,10.8,0,12.1-5.4c2.8-12.5-3.1-26.8-13.5-34.6c-12.8-9.6-30.3-10.7-45.7-6.4c-12.6,3.5-24.9,11.1-29.7,23.2
			c-3.8,9.6-0.9,21.9,6.8,28.1c3.9,3.1,9.6,2.1,12.1-2.1c8-13.3-0.6-35-16.5-40.2c-18.4-6-38.8,5.3-50.1,21
			c-6,8.3-8.6,20.6-6.5,30.2c2.2,10,17.5,7.2,16.1-3c-2.7-19.2-22.7-37.1-42.3-31.7c-22,6.1-29.4,37.5-16.6,55
			c3.5,4.8,11,4.2,13.8-1.1c11.7-22.3,0.7-55.5-24-63.5c-24-7.8-51.5,11.4-56.2,35.4c-1.3,6.8,6.1,12.1,12.1,8.5
			c17.7-10.4,24.5-39.9,8.2-54.3c-15.4-13.5-41.5-5.1-51.2,11.7c-4.6,8,5.3,16.3,12.3,10.4c8.7-7.4,13.4-20.8,9.5-32
			c-5.8-17-25.4-26.4-43.3-24.6s-33.6,12.6-46,25.6"/>
	</g>
</g>
</svg>
