<svg id="Layer_1" data-name="Layer 1" xmlns="http://www.w3.org/2000/svg" xmlns:xlink="http://www.w3.org/1999/xlink" viewBox="0 0 216 216"><defs><style>.cls-1,.cls-4{fill:none;}.cls-2{fill:#65a9dd;}.cls-3{clip-path:url(#clip-path);}.cls-4{stroke:#010101;stroke-miterlimit:10;stroke-width:1.08px;}</style><clipPath id="clip-path"><rect class="cls-1" width="216" height="216"/></clipPath></defs><title>Artboard 1</title><rect class="cls-2" width="216" height="216"/><g class="cls-3"><path class="cls-4" d="M-17.45,11.28c13.87-1.43,26-9.59,37.73-17.06S45-20.51,59-19.75c10.22.56,19.69,5.42,28.36,10.84C93-5.36,98.56-1.48,104.88.73,117,5,130.53,2.55,142.48-2.16s22.91-11.63,34.68-16.77,24.94-8.52,37.45-5.62"/><path class="cls-4" d="M10.32,28.63C21.94,26,43,28.29,52.64,35.27c6.43,4.65,11.72,11.2,19.2,13.83,8.33,2.93,17.65.31,25.41-3.91s14.62-10,22.5-14c13.22-6.69,28.64-8,43.35-6.28s38.95,9.67,53,14.39"/><path class="cls-4" d="M-8.75,86.76c23.43-6.15,46.38-19.42,70.27-15.37,10.76,1.82,20.67,7.1,31.38,9.2,16.43,3.22,33.3-1.23,49.43-5.74,7.26-2,14.76-4.1,22.23-3.1,6.73.9,12.85,4.22,19.09,6.88a103.27,103.27,0,0,0,57.47,6.72"/><path class="cls-4" d="M.08,154.44c9.67-15.27,24.46-33.11,42.08-37.16,12.77-2.93,26.09.59,38.43,5,25.85,9.22,50.53,22.45,77.57,27.09,13.62,2.34,28.13,2.32,40.65-3.52,12.79-6,22.19-17.33,34-25"/><path class="cls-4" d="M.19,169.86C10.3,179.55,24,185.17,37.89,186.6S66,185.43,79,180.26c5.65-2.24,11.47-5,17.51-4.3,6.56.77,11.88,5.48,17.94,8.1,9.66,4.18,20.78,2.86,31,.43,15.86-3.75,31.05-9.93,46.81-14.12s32.59-6.34,48.27-1.9"/><path class="cls-4" d="M-16,14.39c5.42,0,10.55-2.31,15.42-4.69q15.48-7.57,30.3-16.4C38.67-12,48.23-17.88,58.57-17c7.38.65,14,4.68,20.3,8.49,13.88,8.33,29,16.31,45.2,15.77,11.48-.39,22.37-5.07,32.51-10.46s19.95-11.58,30.77-15.42,23.1-5.13,33.65-.56"/><path class="cls-4" d="M-17.23,17.18c6.41,2.3,13.45-.44,19.55-3.48C11.78,9,20.81,3.44,29.89-2c9.26-5.54,19.63-11.17,30.26-9.26C69.45-9.58,76.71-2.5,85.08,1.88c6.53,3.42,13.79,5.2,21,6.8,7.86,1.75,15.88,3.33,23.9,2.74C140.75,10.62,150.84,6,160.34.81s18.81-10.88,29.11-14.14,22-3.8,31.53,1.32"/><path class="cls-4" d="M-14.44,21.14c13.9.2,26.08-8.58,37.73-16.17S48.93-9.64,62.22-5.56c7.74,2.37,13.89,8.18,21,12,8.83,4.7,18.95,6.23,28.84,7.69,11.54,1.7,23.47,3.38,34.72.32C160,10.85,170.6,1.22,183.22-3.91a56.8,56.8,0,0,1,28-3.74C217-7,222.71-5.39,228.43-6.14"/><path class="cls-4" d="M226.22-1.1a47,47,0,0,0-30.7-2.81C180,0,167.6,11.48,152.71,17.21c-13,5-27.41,5.37-41.09,2.87S84.9,12.32,72.38,6.27C65.62,3,58.68-.57,51.17-.75,43.34-.94,35.9,2.62,29.35,6.92s-12.59,9.42-19.56,13a50.94,50.94,0,0,1-24.69,5.55"/><path class="cls-4" d="M-13.22,29.21a62,62,0,0,0,29.63-8.76C26,14.71,34.34,6.23,45.27,4.12,59.91,1.29,73.72,10.63,87.4,16.57a98.44,98.44,0,0,0,85.8-4.29c7.33-4.09,14.3-9.21,22.45-11.23,7.65-1.89,15.68-.89,23.5.13"/><path class="cls-4" d="M130.5,24.42c-10.53,5-22.56,1.71-33.88-1a100.37,100.37,0,0,1-15.53-4.55c-3.61-1.49-7-3.41-10.62-5-11-4.76-24.26-5.75-34.86-.08-3.72,2-7,4.71-10.45,7.1A68.58,68.58,0,0,1-9.94,32.92l-4.61,6.39a183.25,183.25,0,0,1,42.4-5.7,31.54,31.54,0,0,1,10.65,1.15c4.32,1.46,7.86,4.55,11.43,7.38,10.07,8,22.4,14.61,35.14,13.07,11.21-1.35,20.59-8.72,30.11-14.78,11.72-7.46,25.07-13.38,39-12.91,12.71.43,24.54,6.13,36.35,10.83s24.85,8.53,37.1,5.11"/><path class="cls-4" d="M153.67,24.14c6.78-3,15.63-4.54,22.84-7.75s14.39-6.92,22.22-8a34.4,34.4,0,0,1,19.31,3"/><path class="cls-4" d="M163.13,25c9.52-.87,18.8-7.2,28.25-8.68s19.61-1.4,28,3.28"/><path class="cls-4" d="M173,26.48c12.86-3.34,14.46-8.1,26.43-6.77,7.43.83,14.47,3.84,21,7.56"/><path class="cls-4" d="M181.84,28.82c7.69-1.51,13.79-5.15,20.7-1.45s14.26,7.7,22.07,7"/><path class="cls-4" d="M21.26,27.44C29.5,25.81,38,18.05,46.15,16.25c6-1.32,12.27-.23,18.1,1.68s11.36,4.63,17.13,6.7c8.07,2.89,16.53,4.47,25,6a34.78,34.78,0,0,0,7.61.85,34.8,34.8,0,0,0,9.08-2l10-3.15"/><path class="cls-4" d="M29.17,27.9c5.77.54,10.92-4.14,16.58-5.43,8.78-2,17.5,2.68,26.11,5.3,12.25,3.72,25.32,4,38.12,3.53"/><path class="cls-4" d="M40.05,29.76c3.89-.84,9.55-2.36,13.5-1.85a42.24,42.24,0,0,1,8,2.28,99.88,99.88,0,0,0,47.65,4.06,31.4,31.4,0,0,0,11-3.4"/><path class="cls-4" d="M52.76,35c7.93-1,16.23,2.81,24,4.79a50.6,50.6,0,0,0,34.05-3.28"/><path class="cls-4" d="M59.77,40.93c6.65-.53,13.82,1.76,20.29,3.38s13.63,2.52,19.56-.55"/><path class="cls-4" d="M66.24,46.13a25.87,25.87,0,0,1,7.58.58c4.17.95,8.19,2.94,12.46,2.79"/><path class="cls-4" d="M-13.69,42l32.63-5.31c4.05-.66,8.21-1.32,12.23-.46,7.71,1.65,13.08,8.37,19.22,13.31A48.54,48.54,0,0,0,96.52,57.2C113.63,51,126.47,35.27,144.2,31.13a39.68,39.68,0,0,1,24.11,2c4.14,1.73,7.95,4.15,11.92,6.22a79,79,0,0,0,55.92,6.29"/><path class="cls-4" d="M-17.69,47.46l28-5.09c6.85-1.25,14-2.48,20.67-.49,8,2.37,13.86,8.88,20.7,13.58a51.14,51.14,0,0,0,44.47,6.25c11.06-3.7,20.43-11.08,30.32-17.27s21.24-11.41,32.82-10c10,1.23,18.64,7.21,27.86,11.25a75.14,75.14,0,0,0,45.79,4.55"/><path class="cls-4" d="M-15.78,53.06c16.95-3.45,35-6.82,51.14-.59C42.59,55.27,49,59.85,56.08,63c19.52,8.69,43.18,5.45,61.32-5.85,10-6.23,19-14.91,30.63-17.09,15.39-2.89,30,6.48,45.05,11a74.12,74.12,0,0,0,46.06-1.34"/><path class="cls-4" d="M-19.1,59.46C-5.68,56.62,8.12,53.76,21.65,56c21.69,3.59,41,20,62.9,17.87,9-.87,17.37-4.87,25.52-8.81l28.51-13.78c7.59-3.67,15.76-7.43,24.11-6.25,7.35,1,13.56,5.76,20.28,8.91,17.23,8.07,37.47,5.66,56,1.16"/><path class="cls-4" d="M-19.74,66.74-2.38,63.4c5.2-1,10.44-2,15.73-1.87a37,37,0,0,1,15.1,3.65c1.84.89,3.61,1.93,5.5,2.7,5.07,2.06,7,3.06,12.5,3"/><path class="cls-4" d="M-19.39,71.67a144.72,144.72,0,0,1,55.75.83"/><path class="cls-4" d="M-18.48,77.38c9.75.22,19.37-3.89,29-2.68,3.41.43,5.69,1.51,9,2.58"/><path class="cls-4" d="M88.86,79.59c19.84-3.34,35.68-17.48,54.46-24.7,4-1.53,8.26-2.73,12.48-2.08,4,.61,7.53,2.81,11.07,4.74a66.09,66.09,0,0,0,22.66,8c17.65,2.38,35-4.79,52.38-8.66"/><path class="cls-4" d="M106.65,81.7c13.76-6.16,25.85-15.46,39-22.82a16,16,0,0,1,4.9-2c2.77-.49,5.58.41,8.23,1.34a73.34,73.34,0,0,1,10.1,4.16c3.59,1.89,6.91,4.32,10.61,6,9.81,4.4,21.29,3,31.56-.22s20-8.08,30.47-10.57"/><path class="cls-4" d="M124,79.45c9.3-6.16,18.84-12.42,29.67-15.09a17.75,17.75,0,0,1,6.64-.62c3,.41,5.61,2,8.18,3.56a72.37,72.37,0,0,0,9.38,5c9.38,3.89,20,4.12,29.93,1.9S226.95,67.37,235.55,62"/><path class="cls-4" d="M146.16,73.68c1.58-1.58,7-4.23,11.88-4.7a11.45,11.45,0,0,1,9.1,3.25"/><path class="cls-4" d="M187.75,80a69.63,69.63,0,0,0,53.9-19.3"/><path class="cls-4" d="M202.47,84.46c14.44-.85,27.2-8.07,37.77-16.56"/><path class="cls-4" d="M-12.65,93.44A381.47,381.47,0,0,1,35.88,78a68.41,68.41,0,0,1,11.84-2.13c7.82-.51,15.6,1.43,23,3.9,9.06,3,17.89,6.86,27.27,8.65a64.48,64.48,0,0,0,33.61-2.62c7.62-2.73,14.92-6.94,23-7.42,7-.41,13.89,2.08,20.59,4.32,23,7.7,48.27,12.75,71.4,5.35"/><path class="cls-4" d="M-15.14,99.6A217.94,217.94,0,0,1,35.29,82.21c7.4-1.57,15-2.76,22.52-1.89,12.63,1.47,23.86,8.57,36.11,11.94a62.9,62.9,0,0,0,35.88-.82c7.39-2.4,14.37-6.19,22-7.53,14.35-2.51,28.54,3.85,42.37,8.44,17.6,5.85,37.34,8.85,54.39,1.55"/><path class="cls-4" d="M-20.19,108.72c14.76-7.53,29.65-15.11,45.64-19.48s33.36-5.33,48.93.35c7.1,2.59,13.68,6.49,20.89,8.76,13.64,4.29,28.57,2.39,42.16-2.08,9.23-3,18.27-7.25,28-7.89,17.91-1.18,34.36,10,52.19,12.06,11.72,1.39,23.55-1.19,34.82-4.68"/><path class="cls-4" d="M-18.48,114a257.38,257.38,0,0,1,48.3-20.18c5.61-1.7,11.32-3.21,17.17-3.49,22.09-1,41.91,15.38,64,15.66,20,.25,38.72-12.75,58.59-10.71,8.3.85,16.08,4.3,24.08,6.68a96.35,96.35,0,0,0,59-1.46"/><path class="cls-4" d="M-16.75,118.81c7.4-4.15,14.81-8.31,22.34-12.23C20.33,98.92,36.73,92,53.08,94.93c12,2.14,22.4,9.31,33.93,13.2,18.38,6.2,38.71,3.71,57.13-2.37,7.86-2.6,15.73-5.87,24-5.82,8.61,0,16.72,3.68,24.85,6.51,18.91,6.59,40,9,58.9,2.39"/><path class="cls-4" d="M-15.94,124.12c17-5.1,30.48-19.63,48-22.75,20.67-3.69,40.23,9.32,60.65,14.17a79.81,79.81,0,0,0,38.73-.5c14.15-3.75,27.68-11.47,42.3-10.75,11.21.55,21.5,6,32.21,9.4A88,88,0,0,0,249.39,116"/><path class="cls-4" d="M-22.07,131.42a353.35,353.35,0,0,0,38.14-15.26c7.78-3.65,15.65-7.65,24.2-8.51,16-1.61,30.71,7.84,46.08,12.53a79.92,79.92,0,0,0,46.4,0c15.1-4.63,29.72-13.87,45.37-11.76,7.5,1,14.37,4.6,21.44,7.3a94.82,94.82,0,0,0,34.51,6.21"/><path class="cls-4" d="M-18.48,135c7.84.11,15.41-2.81,22.42-6.33S17.64,121,25,118.2s15.6-4.33,23-1.76"/><path class="cls-4" d="M104.3,131.57c11.58,1.34,23-3.38,33.74-7.86s21.93-9.22,33.57-8.61c7.65.4,15,3.09,22.14,5.75l14.15,5.25c4.95,1.84,10.33,3.69,15.39,2.21"/><path class="cls-4" d="M-16.79,140c6.74,1,13.36-2,19.39-5.22s12.26-6.66,19.06-6.73"/><path class="cls-4" d="M118.31,137.15c17-1.84,31.18-13.56,48.23-14.35,17.33-.8,33.13,8.81,50.3,11.25"/><path class="cls-4" d="M128,140.95c3.71,1.63,6.79-.31,8.06-.71A159.09,159.09,0,0,0,152.83,134c6.63-2.75,13.55-5.87,20.68-5,5,.62,9.56,3.19,14.49,4.28,9.14,2,15.29-.9,23.06,4.32"/><path class="cls-4" d="M141.64,145.38c3.29,1,6.83-.47,10.12-1.44a100.86,100.86,0,0,0,13.61-5.1c3.34-1.53,6.73-3.29,10.4-3.41,3.45-.12,6.76,1.22,10.06,2.26A60.84,60.84,0,0,0,208,140.38"/><path class="cls-4" d="M155.2,148.88c7.68.41,13.93-5.9,21.57-6.8,8.11-1,15.68,4.46,23.68,2.82"/><path class="cls-4" d="M171,150.73a30.7,30.7,0,0,1,20-2.25"/><path class="cls-4" d="M-10.38,168.42c18.59-10,26-34.44,45-43.69,10.22-5,22.36-4.64,33.33-1.66S89,131.48,99.25,136.5q12.19,6,24.73,11.26c8,3.37,16.24,6.51,24.83,8,7.79,1.32,15.74,1.24,23.63,1s16-.52,23.49-3c11-3.64,19.91-11.55,29.12-18.56s19.75-13.48,31.31-13.41"/><path class="cls-4" d="M-9.33,172.41c12.19-7,20.74-18.8,30.57-28.86s22.66-19.09,36.68-17.91c7.77.65,14.9,4.38,21.81,8,20.68,10.81,41.85,21.33,64.66,26.2s47.77,3.58,67.91-8.2c14.66-8.57,27.26-22.69,44.17-24.15"/><path class="cls-4" d="M1.85,170.53c9.67-8.49,20-18.65,29.68-27.14,7.23-6.35,15.36-13.06,25-13.12,8.12-.06,15.38,4.66,22.29,8.91,22,13.5,46.14,24,71.7,27.31s52.63-1.16,74.07-15.45c11.24-7.5,22.53-18.07,36-16.5"/><path class="cls-4" d="M4.62,172.95l32.5-27.26c4.81-4,9.92-8.21,16.1-9.28,11.12-1.92,20.94,6.54,30.38,12.72,15.1,9.88,32.84,14.74,50.26,19.46,7.77,2.11,15.62,4.23,23.67,4.62,9.3.45,18.54-1.43,27.66-3.29,16.55-3.39,33.43-6.9,48.1-15.28,8.4-4.8,16.5-11.32,26.16-11.82"/><path class="cls-4" d="M9.65,177.09c8.29-8.56,17.42-17.64,27.21-24.43,7.72-5.35,16.94-10.3,26.08-8.14,4.11,1,7.74,3.29,11.37,5.44,17.86,10.57,37.55,17.62,57.1,24.6a95.39,95.39,0,0,0,11.81,3.65c7.2,1.56,13,1.43,20.33,1.09"/><path class="cls-4" d="M15.82,180c7.22-6.38,14.92-13.61,22.42-19.67A47,47,0,0,1,47.53,154c6.87-3.23,15-3.07,22.28-1.1s14.09,5.61,20.77,9.23L112.49,174a89.31,89.31,0,0,0,15,6.94,82.53,82.53,0,0,0,12.41,2.67c2.77.44,2.89.86,5.69.85"/><path class="cls-4" d="M21.92,182.79a74.07,74.07,0,0,1,26-19.36c7.94-3.53,16.93-5.64,25.33-3.43a52.34,52.34,0,0,1,11.22,4.93A192.82,192.82,0,0,1,102,175.16a69.9,69.9,0,0,0,8.1,5.09c7.17,3.58,15.08,5.26,23.3,6.28"/><path class="cls-4" d="M29.33,184.66C35.7,179.39,42.44,174.42,50,171.2s16.22-4.59,24.22-2.52c6.08,1.58,11.5,5,17.46,7"/><path class="cls-4" d="M38.87,186.37c5.29-3.82,10.62-8,16.53-10.75A23.47,23.47,0,0,1,66.22,173c5.46.25,10.39,4.75,15.79,5.59"/><path class="cls-4" d="M52.49,186.58c3.11-2.14,5.55-5.44,9.16-6.55,3.78-1.16,7.81.38,11.46,1.9"/><path class="cls-4" d="M-4.28,173.5a43.55,43.55,0,0,0,25.18,15.87c7,1.49,14.2,1.22,21.33,1,8.9-.34,17.83-.68,26.6-2.23,12.35-2.18,25.06-6.73,37.07-3.16,4.53,1.35,8.66,3.8,13.09,5.42,12.86,4.71,27.25,2.21,40.22-2.2s25.34-10.67,38.72-13.61a81.42,81.42,0,0,1,43.82,2.57"/><path class="cls-4" d="M-7.72,178.74c-.31,4.4,4.13,7.52,8.12,9.4a98.18,98.18,0,0,0,63.68,6.7c8.34-2,16.56-5,25.13-5.1,13.92-.11,26.85,7.71,40.75,8.53,14.72.87,28.58-6.11,42.55-10.83,18.4-6.22,38.38-8.66,57.38-4.67,15.8,3.31,30.72,11,46.83,11.87"/><path class="cls-4" d="M-6.53,189.66c17.76,12.73,41.42,14,63,10.6,15.4-2.43,31.12-7,46.3-3.4,6.44,1.51,12.45,4.44,18.77,6.39a54.68,54.68,0,0,0,28.83,1.32c10.19-2.46,19.22-8.24,28.95-12.14a83,83,0,0,1,45.31-4.65c18.08,3.24,35.29,12.52,53.63,11.51"/><path class="cls-4" d="M-7,196.55C7.6,208,27.83,208.8,46.3,206.94s37.22-5.85,55.4-2.06c9.65,2,18.82,6.17,28.6,7.41,14.2,1.8,28.46-2.7,41.53-8.52,11.67-5.2,23.22-11.59,35.95-12.73,22.91-2,44.17,13.3,67.17,13.85"/><path class="cls-4" d="M-7.35,204.83c15.73,7.67,33.83,8.74,51.32,8.29s35.09-2.27,52.43.12c12.34,1.7,24.38,5.53,36.82,6.15,13.28.66,26.51-2.37,39-6.84,14-5,27.71-11.89,42.56-12.65,19.76-1,38.22,8.91,57.41,13.7"/><path class="cls-4" d="M-6.37,211.08a151.61,151.61,0,0,0,47.08,9c15,.44,30.18-1.36,45.09.67,13.07,1.78,25.67,6.48,38.81,7.52,25.37,2,49.49-9.69,73.18-19,7-2.76,14.21-5.35,21.72-5.89,21-1.5,39.44,12.87,59.52,19.2"/><path class="cls-4" d="M-8.07,220.76c5.66-3.11,12.58-.48,18.77,1.35,18.87,5.58,39.08,3.08,58.68,4.82,24.68,2.19,49.28,11.14,73.67,6.76,11.69-2.1,22.62-7.18,34.06-10.4,15.5-4.36,32-13.59,47.86-10.9,16.86,2.85,33.67,18,50.51,15.06"/></g></svg>