<svg xmlns="http://www.w3.org/2000/svg" viewBox="0 0 539.62 343.34"><defs><style>.cls-1{fill:none;stroke:#231f20;stroke-linecap:round;stroke-linejoin:round;stroke-width:3.19px;}</style></defs><title>waveAsset 2</title><g id="Layer_2" data-name="Layer 2"><g id="Layer_1-2" data-name="Layer 1"><path class="cls-1" d="M1.6,178.55C33.94,118.48,185.13-66.65,252.81,28.11"/><path class="cls-1" d="M286,43.11s-3.79-40.33-44.39-28.66"/><path class="cls-1" d="M300,43.11s-.34-17.78-18.92-15.39"/><path class="cls-1" d="M290.56,27.49c17-6,34.91.78,43.46,16.61-3.58-13.91,31,13.32,9,28"/><path class="cls-1" d="M340.52,61.61S352.31,90.8,324,91.33"/><path class="cls-1" d="M324.52,83.61s-.07,35.86-27,16"/><path class="cls-1" d="M309,73.61C312.49,116,277.62,94,281.1,85.11"/><path class="cls-1" d="M290.56,76.47c-4.57,9.21-19,15.1-21,0"/><path class="cls-1" d="M280,65.61c-10.63,17.08-41.52,24.92-38.41-4"/><path class="cls-1" d="M253.81,43.11S238,77.86,225.75,59.53"/><path class="cls-1" d="M238,49.6c-10.27,10.93-29.75,16.25-26-.1"/><path class="cls-1" d="M224.65,35.3c-9.51,25.42-42,18-30.13-10.94C183,56,173.18,27.6,160.09,32.95c-8.89,3.63-18.58,17.16-24.71,24-41.09,45.52-66.29,105.15-71,166.21"/><path class="cls-1" d="M273.52,84.61C193.74,172.84,348.11,266,418,237.11"/><path class="cls-1" d="M216,59.89c-55.37,116.53,57.46,253.45,180.5,249.71"/><path class="cls-1" d="M194.59,45.44c-46,42.22-49,110.83-23.44,164.55C199.3,269.2,294.39,356.52,369.52,339.61"/><path class="cls-1" d="M176.36,38.43s-85.34,52-68,265.34"/><path class="cls-1" d="M538,178.55c1.36,11.58-195.2,52-266.78,8"/></g></g></svg>