<svg xmlns="http://www.w3.org/2000/svg" xmlns:xlink="http://www.w3.org/1999/xlink" viewBox="0 0 487.22 411.19"><defs><style>.cls-1,.cls-4{fill:none;}.cls-2{fill:#0067c9;}.cls-3{clip-path:url(#clip-path);}.cls-4{stroke:#000;stroke-miterlimit:10;stroke-width:1.7px;}</style><clipPath id="clip-path"><rect class="cls-1" x="34.96" y="41.14" width="339.53" height="339.53"/></clipPath></defs><title>wave-colorAsset 5</title><g id="Layer_2" data-name="Layer 2"><g id="Layer_1-2" data-name="Layer 1"><rect class="cls-2" x="34.96" y="41.14" width="339.53" height="339.53"/><g class="cls-3"><path class="cls-4" d="M398.64,37.32a31.28,31.28,0,0,0,16.53,9.07"/><path class="cls-4" d="M7.54,58.86C29.34,56.61,48.35,43.78,66.85,32S105.77,8.9,127.65,10.1c16.06.88,30.95,8.51,44.59,17,8.91,5.57,17.66,11.66,27.59,15.13,19.06,6.66,40.33,2.88,59.11-4.54s36-18.27,54.51-26.37S352.64-2,372.31,2.53"/><path class="cls-4" d="M51.19,86.14c18.27-4.1,51.36-.53,66.53,10.44,10.1,7.3,18.42,17.6,30.18,21.74,13.09,4.61,27.75.48,39.94-6.15s23-15.67,35.36-21.93c20.77-10.51,45-12.59,68.14-9.88S352.56,95.57,374.63,103"/><path class="cls-4" d="M21.21,177.52C58,167.85,94.11,147,131.66,153.35c16.91,2.87,32.49,11.16,49.32,14.46,25.83,5.07,52.34-1.94,77.7-9,11.41-3.19,23.2-6.45,34.95-4.87,10.58,1.42,20.19,6.64,30,10.81A162.33,162.33,0,0,0,414,175.29"/><path class="cls-4" d="M35.09,283.9c15.2-24,38.46-52,66.14-58.41,20.07-4.61,41,.93,60.41,7.85,40.63,14.49,79.42,35.28,121.93,42.59,21.4,3.68,44.22,3.65,63.9-5.54,20.1-9.38,34.88-27.25,53.46-39.37"/><path class="cls-4" d="M35.26,308.14c15.9,15.23,37.37,24.06,59.27,26.31s44.19-1.84,64.65-10c8.88-3.52,18-7.89,27.52-6.77,10.31,1.22,18.67,8.62,28.2,12.74,15.19,6.56,32.66,4.49,48.77.68,24.94-5.89,48.81-15.61,73.57-22.2s51.22-10,75.88-3"/><path class="cls-4" d="M9.88,63.76c8.52,0,16.58-3.63,24.23-7.37Q58.44,44.48,81.74,30.6c14-8.35,29-17.56,45.29-16.13,11.59,1,21.94,7.36,31.91,13.35,21.82,13.1,45.61,25.64,71,24.79,18-.61,35.16-8,51.11-16.44s31.35-18.21,48.37-24.24,36.32-8.06,52.89-.89"/><path class="cls-4" d="M7.88,68.15C18,71.76,29,67.45,38.61,62.67,53.49,55.25,67.68,46.55,82,38c14.56-8.7,30.86-17.55,47.56-14.56,14.63,2.62,26,13.74,39.19,20.64,10.27,5.38,21.67,8.18,33,10.7,12.35,2.75,25,5.24,37.57,4.3,16.94-1.26,32.8-8.59,47.74-16.68s29.56-17.1,45.76-22.23,34.59-6,49.55,2.07"/><path class="cls-4" d="M12.26,74.37c21.86.31,41-13.48,59.3-25.42s40.31-23,61.2-16.56c12.16,3.73,21.83,12.85,33.06,18.83C179.7,58.6,195.61,61,211.16,63.31c18.13,2.67,36.89,5.32,54.57.51C286.4,58.19,303.13,43.05,323,35A89.28,89.28,0,0,1,367,29.11c9,1.09,18,3.56,27,2.37"/><path class="cls-4" d="M390.56,39.4A73.8,73.8,0,0,0,342.31,35C318,41.11,298.42,59.18,275,68.18c-20.4,7.84-43.09,8.44-64.6,4.52s-42-12.2-61.66-21.7c-10.63-5.13-21.54-10.76-33.34-11-12.31-.3-24,5.3-34.31,12.06S61.31,66.83,50.35,72.44a80.08,80.08,0,0,1-38.81,8.72"/><path class="cls-4" d="M14.18,87A97.41,97.41,0,0,0,60.76,73.27c15-9,28.18-22.34,45.36-25.66,23-4.45,44.72,10.24,66.23,19.57,42.78,18.56,94.15,16,134.86-6.74C318.74,54,329.69,46,342.5,42.79c12-3,24.65-1.4,36.93.2"/><path class="cls-4" d="M240.1,79.53c-16.55,7.78-35.45,2.68-53.26-1.51-8.26-1.94-16.57-3.9-24.41-7.15-5.67-2.35-11.05-5.35-16.69-7.78-17.36-7.48-38.14-9-54.8-.12C85.09,66.1,80,70.38,74.5,74.13A107.81,107.81,0,0,1,19.35,92.88l-7.24,10a288.06,288.06,0,0,1,66.65-9c5.64-.09,11.4,0,16.74,1.81,6.79,2.3,12.35,7.15,18,11.6,15.82,12.52,35.21,23,55.24,20.55,17.62-2.13,32.36-13.7,47.34-23.23,18.42-11.72,39.41-21,61.23-20.29,20,.68,38.57,9.63,57.14,17s39.07,13.41,58.32,8"/><path class="cls-4" d="M276.52,79.09c10.66-4.74,24.56-7.14,35.91-12.18S335,56,347.35,54.38a54.07,54.07,0,0,1,30.35,4.76"/><path class="cls-4" d="M291.39,80.39c15-1.37,29.55-11.32,44.4-13.64s30.83-2.2,43.94,5.15"/><path class="cls-4" d="M306.88,82.76C327.1,77.51,329.61,70,348.42,72.12c11.68,1.3,22.74,6,32.93,11.89"/><path class="cls-4" d="M320.8,86.43c12.09-2.37,21.68-8.09,32.54-2.29s22.42,12.1,34.7,11"/><path class="cls-4" d="M68.39,84.26c12.95-2.55,26.24-14.75,39.13-17.59,9.41-2.07,19.29-.36,28.45,2.64s17.85,7.28,26.93,10.53c12.68,4.54,26,7,39.23,9.5a54.67,54.67,0,0,0,12,1.33c4.88-.18,9.61-1.66,14.27-3.12l15.73-4.95"/><path class="cls-4" d="M80.81,85c9.08.85,17.17-6.51,26.06-8.54,13.8-3.15,27.5,4.21,41,8.33,19.25,5.85,39.8,6.25,59.91,5.55"/><path class="cls-4" d="M97.93,87.92c6.12-1.33,15-3.71,21.21-2.91,4.35.57,8.49,2.17,12.64,3.58A157,157,0,0,0,206.68,95c6-1,12-2.3,17.26-5.34"/><path class="cls-4" d="M117.89,96.22c12.47-1.6,25.52,4.42,37.7,7.53a79.53,79.53,0,0,0,53.52-5.15"/><path class="cls-4" d="M128.92,105.47c10.46-.83,21.72,2.77,31.9,5.31s21.43,4,30.75-.86"/><path class="cls-4" d="M139.09,113.65a40.66,40.66,0,0,1,11.91.91c6.55,1.49,12.87,4.63,19.59,4.39"/><path class="cls-4" d="M13.44,107.15l51.29-8.35c6.37-1,12.91-2.07,19.22-.72,12.12,2.6,20.56,13.15,30.21,20.93,20,16.07,48.46,20.8,72.53,12,26.89-9.79,47.08-34.48,74.95-41a62.37,62.37,0,0,1,37.9,3.17C306,96,312,99.76,318.28,103a124.1,124.1,0,0,0,87.91,9.88"/><path class="cls-4" d="M7.15,115.74l44-8c10.76-2,22-3.89,32.49-.77,12.51,3.73,21.78,14,32.53,21.35a80.39,80.39,0,0,0,69.91,9.83c17.39-5.82,32.12-17.41,47.66-27.14s33.39-17.94,51.58-15.69c15.7,1.94,29.31,11.34,43.8,17.68a118.11,118.11,0,0,0,72,7.15"/><path class="cls-4" d="M10.16,124.54c26.64-5.42,55-10.72,80.39-.92,11.37,4.39,21.43,11.6,32.57,16.56,30.69,13.66,67.87,8.56,96.39-9.2,15.72-9.79,29.94-23.44,48.14-26.86,24.19-4.54,47.23,10.19,70.82,17.22a116.5,116.5,0,0,0,72.4-2.11"/><path class="cls-4" d="M4.95,134.61c21.09-4.47,42.78-9,64-5.44,34.1,5.64,64.47,31.43,98.88,28.09,14.16-1.37,27.31-7.66,40.12-13.85l44.82-21.66c11.93-5.77,24.77-11.69,37.89-9.82,11.55,1.64,21.32,9.06,31.89,14,27.08,12.69,58.89,8.9,88,1.82"/><path class="cls-4" d="M3.93,146l27.29-5.25c8.17-1.57,16.41-3.15,24.73-2.94a58.22,58.22,0,0,1,23.74,5.74c2.89,1.39,5.67,3,8.64,4.24,8,3.24,11,4.81,19.65,4.75"/><path class="cls-4" d="M4.49,153.8a227.49,227.49,0,0,1,87.63,1.3"/><path class="cls-4" d="M5.92,162.78c15.33.34,30.44-6.12,45.66-4.21,5.36.67,9,2.37,14.08,4.06"/><path class="cls-4" d="M174.65,166.24c31.18-5.26,56.09-27.48,85.61-38.82,6.26-2.41,13-4.29,19.61-3.28,6.27,1,11.83,4.41,17.4,7.46,11.1,6.07,23.08,10.81,35.62,12.5,27.75,3.74,55-7.54,82.33-13.61"/><path class="cls-4" d="M202.61,169.56c21.63-9.68,40.63-24.3,61.31-35.86a25.22,25.22,0,0,1,7.7-3.19c4.35-.78,8.77.65,12.94,2.1a115.28,115.28,0,0,1,15.87,6.54c5.65,3,10.86,6.79,16.68,9.41,15.43,6.92,33.46,4.69,49.61-.34s31.44-12.71,47.89-16.62"/><path class="cls-4" d="M229.85,166c14.62-9.68,29.62-19.53,46.64-23.72a27.9,27.9,0,0,1,10.44-1c4.66.65,8.81,3.18,12.85,5.6a113.75,113.75,0,0,0,14.74,7.79c14.75,6.12,31.47,6.48,47,3S391.7,147,405.23,138.56"/><path class="cls-4" d="M264.72,157c2.48-2.48,11-6.65,18.67-7.39a18,18,0,0,1,14.31,5.11"/><path class="cls-4" d="M330.09,167a109.45,109.45,0,0,0,84.73-30.33"/><path class="cls-4" d="M353.24,173.9c22.7-1.33,42.76-12.69,59.38-26"/><path class="cls-4" d="M378.53,174.74a65.57,65.57,0,0,0,37.09-20.38"/><path class="cls-4" d="M15.07,188a599.65,599.65,0,0,1,76.29-24.34A107.53,107.53,0,0,1,110,160.33c12.29-.81,24.52,2.24,36.21,6.14,14.24,4.74,28.13,10.79,42.87,13.59a101.36,101.36,0,0,0,52.83-4.12c12-4.29,23.45-10.91,36.14-11.66,11.08-.65,21.84,3.27,32.36,6.79,36.2,12.1,75.88,20,112.23,8.41"/><path class="cls-4" d="M11.17,197.7a342.59,342.59,0,0,1,79.26-27.34c11.64-2.47,23.59-4.34,35.4-3,19.85,2.3,37.5,13.47,56.77,18.77a98.87,98.87,0,0,0,56.4-1.29c11.61-3.77,22.58-9.73,34.61-11.83,22.56-3.95,44.86,6.05,66.59,13.27,27.67,9.19,58.69,13.91,85.5,2.43"/><path class="cls-4" d="M3.23,212C26.43,200.2,49.84,188.28,75,181.42s52.43-8.37,76.91.55c11.16,4.07,21.51,10.21,32.84,13.77,21.44,6.75,44.91,3.75,66.26-3.26,14.52-4.77,28.72-11.4,44-12.4,28.16-1.85,54,15.64,82,19,18.42,2.18,37-1.87,54.73-7.36"/><path class="cls-4" d="M5.91,220.41a404.58,404.58,0,0,1,75.92-31.72c8.81-2.67,17.8-5,27-5.48,34.73-1.65,65.87,24.17,100.64,24.61,31.4.39,60.87-20,92.1-16.83,13.05,1.34,25.28,6.76,37.86,10.49a151.45,151.45,0,0,0,92.69-2.3"/><path class="cls-4" d="M8.64,227.89c11.64-6.53,23.28-13.06,35.12-19.22,23.16-12,48.95-22.9,74.64-18.31,18.82,3.36,35.22,14.64,53.33,20.76,28.89,9.75,60.86,5.84,89.81-3.73,12.35-4.08,24.72-9.22,37.73-9.15,13.53.07,26.29,5.78,39.07,10.23,29.73,10.36,62.87,14.14,92.59,3.75"/><path class="cls-4" d="M9.91,236.24c26.79-8,47.91-30.85,75.44-35.76,32.48-5.8,63.24,14.64,95.34,22.28a125.46,125.46,0,0,0,60.88-.78c22.24-5.9,43.52-18,66.5-16.9,17.63.86,33.8,9.47,50.63,14.77A138.34,138.34,0,0,0,427,223.52"/><path class="cls-4" d="M.27,247.72a555.43,555.43,0,0,0,60-24c12.23-5.74,24.6-12,38-13.38,25.13-2.54,48.28,12.33,72.44,19.69a125.62,125.62,0,0,0,72.93-.06c23.73-7.27,46.71-21.81,71.31-18.48,11.8,1.6,22.59,7.23,33.71,11.47a149.05,149.05,0,0,0,54.24,9.77"/><path class="cls-4" d="M5.91,253.35c12.33.17,24.23-4.41,35.24-10s21.55-12.12,33.09-16.46,24.52-6.81,36.17-2.77"/><path class="cls-4" d="M198.92,248c18.2,2.11,36.12-5.32,53-12.35s34.47-14.49,52.77-13.54c12,.62,23.52,4.85,34.8,9l22.24,8.25c7.78,2.88,16.23,5.8,24.19,3.47"/><path class="cls-4" d="M8.57,261.13c10.59,1.52,21-3.22,30.47-8.2s19.27-10.47,30-10.58"/><path class="cls-4" d="M220.94,256.72c26.66-2.89,49-21.32,75.81-22.56,27.24-1.25,52.07,13.84,79.07,17.68"/><path class="cls-4" d="M236.18,262.69c5.84,2.57,10.68-.49,12.67-1.11a250.08,250.08,0,0,0,26.36-9.79c10.42-4.33,21.31-9.22,32.5-7.83,7.87,1,15,5,22.78,6.73,14.36,3.19,24-1.41,36.25,6.79"/><path class="cls-4" d="M257.6,269.66c5.17,1.57,10.73-.74,15.91-2.27a158.54,158.54,0,0,0,21.39-8c5.25-2.41,10.58-5.17,16.35-5.36,5.43-.18,10.63,1.92,15.81,3.56A95.64,95.64,0,0,0,362,261.8"/><path class="cls-4" d="M278.92,275.17c12.06.65,21.9-9.27,33.9-10.69,12.75-1.5,24.64,7,37.22,4.43"/><path class="cls-4" d="M303.75,278.08c9.63-4.84,20.92-5.77,31.47-3.54"/><path class="cls-4" d="M18.65,305.88c29.22-15.66,40.93-54.14,70.73-68.68,16.07-7.83,35.15-7.3,52.4-2.61S174.93,247.81,191,255.7q19.17,9.43,38.87,17.7c12.63,5.29,25.53,10.23,39,12.53,12.24,2.08,24.74,1.95,37.15,1.64s25.1-.82,36.93-4.74c17.26-5.72,31.29-18.16,45.77-29.17s31-21.19,49.22-21.08"/><path class="cls-4" d="M20.3,312.15c19.15-11.06,32.6-29.55,48.05-45.37s35.63-30,57.67-28.15c12.22,1,23.42,6.89,34.29,12.56,32.5,17,65.78,33.53,101.65,41.18S337,298,368.7,279.49c23-13.48,42.84-35.66,69.44-38"/><path class="cls-4" d="M37.87,309.2c15.2-13.35,31.46-29.32,46.66-42.66,11.37-10,24.15-20.53,39.28-20.63,12.76-.09,24.17,7.33,35,14,34.51,21.22,72.53,37.77,112.71,42.93S354.28,301,388,278.55c17.67-11.79,35.42-28.41,56.51-25.94"/><path class="cls-4" d="M42.22,313,93.3,270.15c7.55-6.34,15.6-12.91,25.31-14.59,17.48-3,32.92,10.29,47.76,20,23.74,15.53,51.63,23.17,79,30.6,12.22,3.31,24.56,6.64,37.2,7.26,14.62.71,29.14-2.24,43.48-5.18,26-5.33,52.55-10.84,75.61-24,13.21-7.54,25.93-17.79,41.12-18.58"/><path class="cls-4" d="M50.13,319.5c13-13.45,27.38-27.73,42.78-38.4,12.13-8.41,26.62-16.18,41-12.8,6.46,1.52,12.17,5.18,17.87,8.56,28.08,16.62,59,27.7,89.75,38.68a149.94,149.94,0,0,0,18.57,5.74c11.31,2.45,20.39,2.25,32,1.71"/><path class="cls-4" d="M59.83,324.11c11.35-10,23.45-21.4,35.24-30.92,4.59-3.71,9.27-7.41,14.61-9.93,10.8-5.08,23.5-4.83,35-1.73s22.15,8.82,32.64,14.5l34.44,18.64c7.61,4.12,15.28,8.26,23.52,10.91a129.73,129.73,0,0,0,19.51,4.2c4.36.69,4.54,1.35,9,1.33"/><path class="cls-4" d="M69.42,328.47A116.44,116.44,0,0,1,110.31,298c12.48-5.54,26.62-8.86,39.82-5.39,6.22,1.64,12,4.71,17.63,7.75,9.38,5,18.78,10.08,27.57,16.07a109.88,109.88,0,0,0,12.73,8c11.27,5.63,23.7,8.27,36.63,9.87"/><path class="cls-4" d="M81.07,331.41c10-8.29,20.6-16.1,32.57-21.16s25.5-7.22,38.08-4c9.56,2.48,18.08,7.91,27.44,11.06"/><path class="cls-4" d="M96.07,334.09c8.32-6,16.69-12.56,26-16.9,5.34-2.5,11.12-4.44,17-4.17,8.59.39,16.33,7.46,24.82,8.79"/><path class="cls-4" d="M117.47,334.42c4.89-3.37,8.72-8.54,14.4-10.29,5.94-1.83,12.27.6,18,3"/><path class="cls-4" d="M384.9,301.84c12.54-4.44,23.75-11.88,35.55-18s24.85-11.08,38.09-9.86"/><path class="cls-4" d="M403.41,303c4.87-1.66,9-5,13.33-7.69A62.76,62.76,0,0,1,462,287.13"/><path class="cls-4" d="M412,305.2c22.47,3.51,42.3,19.76,65,19.2"/><path class="cls-4" d="M417.14,303.19"/><path class="cls-4" d="M415.57,304l-1.9.72c1.67,1,3.74-.18,5.34-1.27a54.4,54.4,0,0,1,13.17-6.94c11.64-3.91,24.34-1.64,36.4.66"/><path class="cls-4" d="M430.69,310.37c2.44,0,4.68-1.22,6.86-2.32a58.25,58.25,0,0,1,45.18-2.75"/><path class="cls-4" d="M448.25,315l27.23-.69c3.87-.1,7.81-.21,11.44-1.55"/><path class="cls-4" d="M447.47,315.81a4.94,4.94,0,0,0-2.77,1.56"/><path class="cls-4" d="M28.23,313.86a68.45,68.45,0,0,0,39.58,25c11,2.34,22.32,1.93,33.53,1.5,14-.53,28-1.07,41.81-3.51,19.41-3.43,39.39-10.59,58.28-5,7.12,2.12,13.61,6,20.58,8.53,20.21,7.41,42.84,3.47,63.22-3.46s39.84-16.77,60.86-21.39a128,128,0,0,1,68.88,4"/><path class="cls-4" d="M416.64,319.69a154,154,0,0,1,18.46,7c10.79,4.93,21.21,11.18,32.86,13.4"/><path class="cls-4" d="M22.82,322.1c-.48,6.92,6.48,11.82,12.76,14.77a154.33,154.33,0,0,0,100.1,10.53c13.11-3.08,26-7.92,39.49-8,21.89-.18,42.2,12.12,64.05,13.41,23.14,1.37,44.92-9.6,66.88-17,28.92-9.78,60.32-13.61,90.2-7.35,24.83,5.21,48.28,17.22,73.61,18.66"/><path class="cls-4" d="M24.7,339.27c27.92,20,65.11,22,99,16.66,24.21-3.81,48.92-11,72.78-5.34,10.12,2.38,19.57,7,29.5,10.05,14.62,4.53,30.45,5.67,45.32,2.08,16-3.87,30.21-12.95,45.5-19.09a130.54,130.54,0,0,1,71.22-7.31c28.42,5.09,55.47,19.67,84.3,18.1"/><path class="cls-4" d="M24,350.09c22.95,18,54.74,19.26,83.78,16.33s58.51-9.19,87.08-3.25c15.17,3.16,29.59,9.69,45,11.64,22.32,2.83,44.73-4.24,65.29-13.39,18.35-8.17,36.5-18.22,56.5-20,36-3.2,69.44,20.91,105.58,21.78"/><path class="cls-4" d="M23.41,363.11c24.73,12.05,53.17,13.74,80.68,13s55.17-3.57,82.42.19C205.9,379,224.83,385,244.38,386c20.88,1,41.68-3.73,61.36-10.75,22-7.86,43.56-18.69,66.9-19.89,31.06-1.6,60.08,14,90.25,21.54"/><path class="cls-4" d="M25,372.94A238.32,238.32,0,0,0,99,387c23.64.69,47.45-2.14,70.88,1.06,20.54,2.8,40.34,10.19,61,11.82,39.88,3.13,77.8-15.23,115-29.87,11-4.33,22.34-8.41,34.15-9.26,33-2.36,62,20.23,93.55,30.18"/><path class="cls-4" d="M22.28,388.15c8.9-4.89,19.77-.75,29.51,2.13,29.67,8.77,61.43,4.84,92.24,7.57,38.8,3.44,77.47,17.51,115.8,10.62,18.38-3.3,35.56-11.29,53.54-16.35,24.37-6.85,50.27-21.36,75.23-17.14,26.5,4.49,52.93,28.35,79.39,23.67"/></g></g></g></svg>